0
SECTION
2
HEADER
9
$INSUNITS
70
4
9
$ACADVER
1
AC1014
9
$HANDSEED
5
FFFF
0
ENDSEC
0
SECTION
2
TABLES
0
TABLE
2
VPORT
5
8
100
AcDbSymbolTable
0
ENDTAB
0
TABLE
2
LTYPE
5
5
100
AcDbSymbolTable
0
LTYPE
5
14
100
AcDbSymbolTableRecord
100
AcDbLinetypeTableRecord
2
BYBLOCK
70
0
0
LTYPE
5
15
100
AcDbSymbolTableRecord
100
AcDbLinetypeTableRecord
2
BYLAYER
70
0
0
ENDTAB
0
TABLE
2
LAYER
5
2
100
AcDbSymbolTable
70
2
0
LAYER
5
50
100
AcDbSymbolTableRecord
100
AcDbLayerTableRecord
2
0
70
0
6
CONTINUOUS
0
ENDTAB
0
TABLE
2
STYLE
5
3
100
AcDbSymbolTable
70
1
0
STYLE
5
11
100
AcDbSymbolTableRecord
100
AcDbTextStyleTableRecord
2
STANDARD
70
0
0
ENDTAB
0
TABLE
2
VIEW
5
6
100
AcDbSymbolTable
70
0
0
ENDTAB
0
TABLE
2
UCS
5
7
100
AcDbSymbolTable
70
0
0
ENDTAB
0
TABLE
2
APPID
5
9
100
AcDbSymbolTable
70
2
0
APPID
5
12
100
AcDbSymbolTableRecord
100
AcDbRegAppTableRecord
2
ACAD
70
0
0
ENDTAB
0
TABLE
2
DIMSTYLE
5
A
100
AcDbSymbolTable
70
1
0
ENDTAB
0
TABLE
2
BLOCK_RECORD
5
1
100
AcDbSymbolTable
70
1
0
BLOCK_RECORD
5
1F
100
AcDbSymbolTableRecord
100
AcDbBlockTableRecord
2
*MODEL_SPACE
0
BLOCK_RECORD
5
1B
100
AcDbSymbolTableRecord
100
AcDbBlockTableRecord
2
*PAPER_SPACE
0
ENDTAB
0
ENDSEC
0
SECTION
2
BLOCKS
0
BLOCK
5
20
100
AcDbEntity
100
AcDbBlockBegin
2
*MODEL_SPACE
0
ENDBLK
5
21
100
AcDbEntity
100
AcDbBlockEnd
0
BLOCK
5
1C
100
AcDbEntity
100
AcDbBlockBegin
2
*PAPER_SPACE
0
ENDBLK
5
1D
100
AcDbEntity
100
AcDbBlockEnd
0
ENDSEC
0
SECTION
2
ENTITIES
0
LWPOLYLINE
5
100
100
AcDbEntity
8
0
100
AcDbPolyline
90
62
70
1
43
0.0
10
-249.69411042703859
20
-209.15741963675899
42
0.41268454290696793
10
-243.72544960244801
20
-215.15733779087304
10
-225.74754454979399
20
-215.25124119179702
10
-225.74754454979399
20
-222.16530508485602
42
0.41421356237309503
10
-223.74754454979399
20
-224.16530508485604
10
-167.74754454979399
20
-224.16530508485602
42
0.41421356237309503
10
-165.74754454979401
20
-222.16530508485602
10
-165.74754454979399
20
-218.16530508485599
10
-143.24754430657003
20
-218.16530508474102
10
-143.247544306549
20
-222.14249439405802
42
0.41421356237162782
10
-141.247544306549
20
-224.14249439404801
10
-85.247544306538998
20
-224.14249439404799
42
0.41421356237309503
10
-83.247544306539041
20
-222.14249439404799
10
-83.247544306538998
20
-218.14249439404801
10
-61.247544363166206
20
-218.14249439404801
10
-61.247544363166206
20
-222.12148924755101
42
0.41421356237309503
10
-59.247544363166199
20
-224.12148924755101
10
-3.2475443631722456
20
-224.12148924755101
42
0.41421356237397222
10
-1.2475443631722998
20
-222.12148924754501
10
-1.2475443631843299
20
-218.12148924755104
10
21.2524556368157
20
-218.086549037932
10
21.252455636835805
20
-222.12477130975901
42
0.41421356237163304
10
23.252455636835801
20
-224.12477130974904
10
79.252456032462817
20
-224.12477130974904
42
0.41421487623557163
10
81.252456032442723
20
-222.12476233813902
10
81.252424636815718
20
-215.12587900005801
10
99.252455693473308
20
-215.12587900005801
42
0.41421356237309503
10
105.25245569347332
20
-209.12587900005803
10
105.252455693473
20
-206.12587900005803
10
105.24527359675301
20
-117.12587900005801
42
0.41418992675688565
10
99.245273616289495
20
-111.12636318635204
10
89.620538089863516
20
-111.12636318635199
10
89.620538089863516
20
-107.12636318635199
42
0.41421356237309503
10
87.620538089863501
20
-105.12636318635201
10
31.620538089863501
20
-105.12636318635201
42
0.41421356237309503
10
29.620538089863512
20
-107.12636318635199
10
29.620538089863505
20
-111.12636318635199
10
19.620538089863501
20
-111.12636318635199
10
6.9228636712588809
20
-108.33905904810001
10
7.78049571379775
20
-104.432082303914
42
0.41421356237303042
10
6.2558233629741622
20
-102.04977791055198
10
-48.441851055630501
20
-90.042929315007598
42
0.41421356237310902
10
-50.824155448992997
20
-91.567601665831205
10
-51.681787491531807
20
-95.474578410017301
10
-64.379461910136499
20
-92.687274271765915
10
-85.694110427024299
20
-92.839993676655993
10
-98.391784845629005
20
-95.627297814907294
10
-99.2494168881679
20
-91.7203210707209
42
0.41421356237302082
10
-101.63172128153001
20
-90.195648719897278
10
-156.329395700135
20
-102.202497315442
42
0.4142135623730962
10
-157.85406805095914
20
-104.58480170880404
10
-156.99643600842001
20
-108.49177845299002
10
-169.69411042702401
20
-111.279082591242
10
-179.69411042702401
20
-111.25243962697601
10
-179.69411042702401
20
-107.25243962697601
42
0.41421356237309503
10
-181.69411042702399
20
-105.25243962697598
10
-237.69411042702401
20
-105.25243962697601
42
0.41421356237309503
10
-239.69411042702401
20
-107.25243962697601
10
-239.69411042702401
20
-111.25243962697601
10
-243.69446032315099
20
-111.25243962697601
42
0.40620534132477354
10
-249.69220506289858
20
-117.08794635406703
10
-249.694110427038
20
-206.15654636628602
0
LWPOLYLINE
5
101
100
AcDbEntity
8
0
100
AcDbPolyline
90
8
70
1
43
0.0
10
-218.0071394302571
20
-119.324057837731
42
0.41421356237309503
10
-219.00713943025704
20
-118.32405783773106
10
-231.00713943025704
20
-118.32405783773096
42
0.41421356237309503
10
-232.00713943025704
20
-119.324057837731
10
-232.00713943025698
20
-131.324057837731
42
0.41421356237309503
10
-231.00713943025704
20
-132.324057837731
10
-219.00713943025704
20
-132.3240578377312
42
0.41421356237309503
10
-218.00713943025599
20
-131.324057837731
0
LWPOLYLINE
5
102
100
AcDbEntity
8
0
100
AcDbPolyline
90
8
70
1
43
0.0
10
59.938460569743306
20
-189.5220578377311
42
0.41421356237309503
10
60.938460569743398
20
-188.52205783773101
10
60.93846056974332
20
-176.52205783773101
42
0.41421356237309503
10
59.938460569743306
20
-175.52205783773101
10
47.938460569743199
20
-175.52205783773101
42
0.41421356237309503
10
46.938460569743199
20
-176.52205783773101
10
46.938460569743185
20
-188.52205783773101
42
0.41421356237309503
10
47.938460569743199
20
-189.52205783773104
0
LWPOLYLINE
5
103
100
AcDbEntity
8
0
100
AcDbPolyline
90
8
70
1
43
0.0
10
71.558460569743303
20
-196.71205783773104
10
83.558460569743417
20
-196.71205783773101
42
-0.41421356237309503
10
84.558460569743431
20
-197.71205783773101
10
84.558460569743431
20
-209.71205783773101
42
-0.41421356237309503
10
83.558460569743417
20
-210.71205783773104
10
71.558460569743303
20
-210.71205783773104
42
-0.41421356237309503
10
70.558460569743289
20
-209.71205783773101
10
70.558460569743332
20
-197.71205783773101
42
-0.41421356237309503
0
LWPOLYLINE
5
104
100
AcDbEntity
8
0
100
AcDbPolyline
90
38
70
1
43
0.0
10
-79.965115437384611
20
-197.430216644636
10
-147.57439107963103
20
-211.80101181215304
10
-158.13365778207199
20
-212.73705782283002
10
-170.03284452300102
20
-212.73705782282903
10
-176.66284452300101
20
-210.59705782283004
10
-189.26653943025701
20
-210.59705782282987
42
-0.41421356237309503
10
-191.76653941535588
20
-208.097057837731
10
-191.76653941535602
20
-195.04705783773102
42
0.41421356237309503
10
-195.26653943025704
20
-191.54705782282986
10
-202.43153943025703
20
-191.54705782282997
42
-0.41421356237309503
10
-205.45653941535596
20
-188.52205783773101
10
-205.45653941535591
20
-176.52205783773101
42
-0.41421356237309503
10
-202.43153943025703
20
-173.49705785263214
10
-198.94653943025702
20
-173.497057852632
42
0.41421356237309503
10
-195.44653941535589
20
-169.99705783773101
10
-195.44653941535586
20
-157.472057837731
42
-0.41421356237309503
10
-192.42153943025701
20
-154.44705785263216
10
-191.58653943025701
20
-154.44705785263204
42
0.41421356237309503
10
-190.08653941535582
20
-152.94705783773099
10
-190.08653941535579
20
-138.42205783773099
42
-0.41421356237309503
10
-187.061539430257
20
-135.39705785263226
10
-156.00761584117402
20
-135.39705785263203
10
-149.30435472259401
20
-135.29184800857701
10
-81.617921450448975
20
-120.90465248054167
42
-0.41421356237315649
10
-78.030092111178845
20
-123.23461609656096
10
-75.535151821366014
20
-134.972387305366
42
-0.41421356237312912
10
-77.865115437384475
20
-138.56021664463617
10
-80.802425275974898
20
-139.184561124487
42
0.41421356237313828
10
-83.498250972158289
20
-143.33576866259099
10
-80.368822559425098
20
-158.05857179859299
42
0.41421356237301021
10
-78.589733604424254
20
-159.21392567494428
10
-78.357921450448913
20
-159.16465248054197
42
-0.41421356237314366
10
-74.770092111179224
20
-161.494616096561
10
-72.275151821365952
20
-173.23238730536599
42
-0.41421356237317253
10
-74.605115437384754
20
-176.82021664463622
10
-77.542425275974907
20
-177.444561124486
42
0.41421356237315299
10
-80.238250972158312
20
-181.59576866259098
10
-77.635151821366179
20
-193.84238730536609
42
-0.41421356237313439
0
LWPOLYLINE
5
105
100
AcDbEntity
8
0
100
AcDbPolyline
90
22
70
1
43
0.0
10
-223.371539430257
20
-156.472057837731
10
-211.37153943023208
20
-156.472057837731
10
-208.93353983693302
20
-156.47206280900301
10
-208.93353985392579
20
-155.88706060100202
42
-0.41421365839022023
10
-207.93354155265902
20
-154.88705857444359
10
-201.93683171372501
20
-154.88705857444404
42
-0.41517597224633312
10
-200.93683710852599
20
-155.89034332295904
10
-200.98903658619895
20
-171.781726127073
42
-0.41120517965488201
10
-201.98203382810203
20
-172.77841689671178
10
-207.926542473636
20
-172.82001380169277
42
-0.41626454760716985
10
-208.93353983693302
20
-171.82003828353899
10
-208.93353983693302
20
-170.47205783773103
10
-225.80954071139104
20
-170.47205783773103
10
-225.80954071139107
20
-171.82706001108599
42
-0.41421364716832149
10
-226.80954100090003
20
-172.8270600110859
10
-231.80954220182102
20
-172.82705856354494
42
-0.41421347757816501
10
-232.80954191231299
20
-171.82705856354499
10
-232.80954191231373
20
-155.88706060100202
42
-0.41421420394529912
10
-231.80954174839999
20
-154.88705857444421
10
-226.80954092883701
20
-154.88705857444418
42
-0.41421420394500774
10
-225.80954076492421
20
-155.88706060100202
10
-225.80954071139104
20
-156.472052896983
0
LWPOLYLINE
5
106
100
AcDbEntity
8
0
100
AcDbPolyline
90
20
70
1
43
0.0
10
-95.92082768656789
20
-122.23012467726301
42
0.41421356568962675
10
-94.734768383940192
20
-123.00036058482455
10
-88.865882970878801
20
-121.75289041113052
42
0.41421358558902982
10
-88.095647090873001
20
-120.56683103332502
10
-91.409761197324784
20
-104.97515696694703
42
0.41421353584054305
10
-92.595820470042099
20
-104.20492114563901
10
-98.464706163052767
20
-105.45239130938016
42
0.41421365839017293
10
-99.23493999001272
20
-106.638452230018
10
-99.113312208778694
20
-107.21066587002701
10
-115.62053197411102
20
-110.719383746077
10
-115.74215979108645
20
-110.14717011366508
42
0.41421420394484709
10
-116.92821966431401
20
-109.376932255556
10
-122.79710525748712
20
-110.6244023980755
42
0.41421356573570783
10
-123.567341165016
20
-111.810461700857
10
-120.25322827340108
20
-127.40213611676103
42
0.41421355943115568
10
-119.067168982832
20
-128.17237201514899
10
-113.19828335775993
20
-126.92490185704641
42
0.41421356195265474
10
-112.428047449248
20
-125.73884256579299
10
-112.656956522006
20
-124.66191004976201
10
-96.149736756673306
20
-121.15319217371102
0
LWPOLYLINE
5
107
100
AcDbEntity
8
0
100
AcDbPolyline
90
8
70
1
43
0.0
10
61.538460569743407
20
-195.57205783773099
10
61.538460569743457
20
-207.57205783773102
42
-0.41421356237309503
10
60.5384605697433
20
-208.57205783773117
10
48.5384605697433
20
-208.57205783773105
42
-0.41421356237309503
10
47.538460569743286
20
-207.57205783773102
10
47.538460569743286
20
-195.57205783773099
42
-0.41421356237309503
10
48.5384605697433
20
-194.57205783773099
10
60.5384605697433
20
-194.57205783773091
42
-0.41421356237309503
0
LWPOLYLINE
5
108
100
AcDbEntity
8
0
100
AcDbPolyline
90
8
70
1
43
0.0
10
-61.875043198935103
20
-102.31755448768702
10
-47.809280700382956
20
-105.30732460164727
42
-0.4142135623728776
10
-47.039044790466804
20
-106.49338389319803
10
-49.533985080279813
20
-118.23115510200401
42
-0.41421356237302676
10
-50.720044371831477
20
-119.00139101191995
10
-64.785806870383652
20
-116.01162089796075
42
-0.41421356237314289
10
-65.556042780299521
20
-114.825561606409
10
-63.061102490487031
20
-103.08779039760392
42
-0.41421356237330986
0
LWPOLYLINE
5
109
100
AcDbEntity
8
0
100
AcDbPolyline
90
8
70
1
43
0.0
10
74.718460569743257
20
-190.662057837731
42
0.41421356237309503
10
75.718460569743399
20
-191.66205783773114
10
87.718460569743314
20
-191.66205783773103
42
0.41421356237309503
10
88.718460569743399
20
-190.662057837731
10
88.718460569743399
20
-178.662057837731
42
0.41421356237309503
10
87.718460569743314
20
-177.662057837731
10
75.718460569743399
20
-177.662057837731
42
0.41421356237309503
10
74.718460569743399
20
-178.662057837731
0
LWPOLYLINE
5
110
100
AcDbEntity
8
0
100
AcDbPolyline
90
26
70
1
43
0.0
10
-208.34353985392599
20
-151.42205783773102
10
-225.21954195045399
20
-151.42205783773102
10
-225.21954076492415
20
-152.00705507446
42
-0.41421365838993923
10
-226.219539066191
20
-153.00705710101749
10
-231.21953802310998
20
-153.00705710101752
42
-0.41421474950349679
10
-232.21954004966852
20
-152.00705507446
10
-232.21954004966804
20
-151.42205783773102
10
-239.45028943025702
20
-151.42205783773107
42
-0.41421356237280366
10
-240.45028943025611
20
-150.42205783773099
10
-240.45028943025599
20
-138.42205783773099
42
-0.41421356237280366
10
-239.45028943025702
20
-137.42205783773102
10
-232.21953943026102
20
-137.42205783773099
10
-232.21954004966804
20
-135.06705740142502
42
-0.41421474950318987
10
-231.21953802311
20
-134.06705537486698
10
-226.21954195045402
20
-134.06705537486698
42
-0.41421356237309503
10
-225.21954195045396
20
-135.06705537486704
10
-225.21954195045399
20
-137.42205783773099
10
-208.34353985392599
20
-137.42205783773099
10
-208.34353985392607
20
-135.06705537486704
42
-0.41421356237309503
10
-207.34353985392602
20
-134.06705537486698
10
-201.34353984527201
20
-134.06705537486704
42
-0.41421355983839137
10
-200.34353984527203
20
-135.067055366213
10
-200.34353969866797
20
-152.00705610890401
42
-0.41421351689966512
10
-201.34353953475801
20
-153.00705611755802
10
-207.34353969001404
20
-153.00705710101784
42
-0.41421420394499731
10
-208.34353985392681
20
-152.00705507446
0
LWPOLYLINE
5
111
100
AcDbEntity
8
0
100
AcDbPolyline
90
8
70
1
43
0.0
10
56.16846056974321
20
-118.37205783773101
10
68.168460569743303
20
-118.37205783773094
42
-0.41421356237309503
10
69.168460569743402
20
-119.37205783773102
10
69.168460569743331
20
-131.37205783773101
42
-0.41421356237309503
10
68.168460569743303
20
-132.37205783773103
10
56.16846056974321
20
-132.37205783773103
42
-0.41421356237309503
10
55.168460569743196
20
-131.37205783773101
10
55.168460569743196
20
-119.37205783773102
42
-0.41421356237309503
0
LWPOLYLINE
5
112
100
AcDbEntity
8
0
100
AcDbPolyline
90
8
70
1
43
0.0
10
66.388460569743302
20
-170.47205783773109
42
0.41421356237309503
10
67.388460569743401
20
-169.472057837731
10
67.388460569743316
20
-157.472057837731
42
0.41421356237309503
10
66.388460569743302
20
-156.472057837731
10
48.388460569743202
20
-156.47205783773103
42
0.41421356237306639
10
47.388460569743309
20
-157.472057837731
10
47.388460569743309
20
-169.472057837731
42
0.41421356237306639
10
48.388460569743302
20
-170.47205783773103
0
LWPOLYLINE
5
113
100
AcDbEntity
8
0
100
AcDbPolyline
90
36
70
1
43
0.0
10
39.153460554842297
20
-176.54681965361203
10
39.153460554842397
20
-191.04705783773099
42
0.41421356237309503
10
40.653460569743601
20
-192.54705785263218
10
41.488460569743502
20
-192.54705785263212
42
-0.4142135623730856
10
44.513460554842268
20
-195.57205783773099
10
44.513460554842283
20
-207.57205783773102
42
-0.41421356237309503
10
41.48846056974341
20
-210.5970578228299
10
29.409878461293403
20
-210.59705782283004
10
22.7698784612924
20
-212.73705782283002
10
10.9160138816467
20
-212.73705782283002
10
0.3554110996106985
20
-209.83038531856403
10
-67.297963423128692
20
-195.45021664463593
42
-0.41421356237313783
10
-69.627927039146925
20
-191.86238730536601
10
-67.132986749334066
20
-180.12461609656097
42
-0.41421356237314449
10
-63.54515741006427
20
-177.79465248054186
10
-58.651416018243701
20
-178.83484932448999
42
0.41421356237325813
10
-56.872327063242516
20
-177.67949544813803
10
-53.326866378133708
20
-160.999414357001
42
0.41421356237296952
10
-54.482220254485355
20
-159.2203254020007
10
-54.71796342312912
20
-159.17021664463613
42
-0.4142135623730826
10
-57.047927039147133
20
-155.58238730536604
10
-54.028572234007299
20
-141.37743977790799
42
0.41421356237312196
10
-55.183926110358648
20
-139.59835082290678
10
-60.067963423128255
20
-138.56021664463628
42
-0.41421356237317553
10
-62.39792703914722
20
-134.97238730536603
10
-59.902986749334232
20
-123.23461609656096
42
-0.41421356237314688
10
-56.315157410064245
20
-120.9046524805417
10
11.371275862081003
20
-135.29184800857701
10
18.074536980660199
20
-135.39705785263203
10
30.0784605697432
20
-135.39705785263214
42
-0.41421356237309503
10
33.103460554842052
20
-138.42205783773099
10
33.103460554842101
20
-152.94705783773099
42
0.41421356237309503
10
34.603460569743199
20
-154.44705785263216
10
35.428460569743301
20
-154.44705785263216
42
-0.41421356237309503
10
38.453460554842152
20
-157.472057837731
10
38.453460554842103
20
-169.49681965361202
0
LWPOLYLINE
5
114
100
AcDbEntity
8
0
100
AcDbPolyline
90
8
70
1
43
0.0
10
-227.25153943025703
20
-188.52205783773101
10
-227.25153943025697
20
-176.52205783773101
42
-0.41421356237338641
10
-226.251539430256
20
-175.52205783773107
10
-214.25153943025703
20
-175.52205783773093
42
-0.41421356237309503
10
-213.25153943025694
20
-176.52205783773101
10
-213.25153943025686
20
-188.52205783773101
42
-0.41421356237309503
10
-214.25153943025703
20
-189.52205783773115
10
-226.251539430256
20
-189.52205783773104
42
-0.41421356237338641
0
LWPOLYLINE
5
115
100
AcDbEntity
8
0
100
AcDbPolyline
90
8
70
1
43
0.0
10
-140.721976370026
20
-115.54779039760402
10
-138.22703608021311
20
-127.28556160640903
42
-0.41421356237309875
10
-138.99727199012904
20
-128.47162089796089
10
-150.73504319893505
20
-130.96656118777383
42
-0.41421356237308932
10
-151.92110249048685
20
-130.19632527785797
10
-154.41604278030005
20
-118.45855406905203
42
-0.41421356237281159
10
-153.64580687038398
20
-117.27249477750118
10
-141.90803566157817
20
-114.77755448768727
42
-0.41421356237343954
0
LWPOLYLINE
5
116
100
AcDbEntity
8
0
100
AcDbPolyline
90
26
70
1
43
0.0
10
-20.651492626293859
20
-126.90332459508701
42
0.41421360499665005
10
-19.881256574032257
20
-128.08938391689529
10
-12.698094433036264
20
-129.61621107094032
42
0.41421391800803514
10
-11.512035001125401
20
-128.845973800742
10
-8.1724128696573004
20
-113.13418191628001
42
0.41421474950292708
10
-8.9426503404994406
20
-111.94812022111101
10
-11.14274546051724
20
-111.48047556705345
42
0.023632142358534034
10
-11.2341257546748
20
-111.45648973993201
10
-16.124862738056521
20
-110.41693150271209
42
0.41421365838981727
10
-17.3109207893419
20
-111.18716974808601
10
-17.434404578234044
20
-111.76811529934115
42
0.023635684844272021
10
-17.525798295867105
20
-111.744124893101
10
-19.725893678264068
20
-111.27648018327289
42
0.023631635431436347
10
-19.817271990129399
20
-111.25249477750101
10
-31.555043198935039
20
-108.75755448768723
42
0.023635682940207813
10
-31.648293258356503
20
-108.74229748289301
10
-31.526665176241906
20
-108.17008234561898
42
0.41421420394518527
10
-32.296900825143602
20
-106.984021037715
10
-40.122816515276789
20
-105.32057264740138
42
0.41399352724541605
10
-41.308719199484798
20
-106.09007392291602
10
-44.633847964763433
20
-121.67599897022902
42
0.41084063926969117
10
-43.875764896755101
20
-122.86016592584402
10
-36.058600357227363
20
-124.62236110251033
42
0.41781509883501844
10
-34.860544670783298
20
-123.854752197011
10
-34.558128775655803
20
-122.43199727120901
10
-20.343312225402205
20
-125.45344980190102
0
LWPOLYLINE
5
117
100
AcDbEntity
8
0
100
AcDbPolyline
90
20
70
1
43
0.0
10
63.466460146073445
20
-152.00705507446
42
0.41421420394497394
10
64.466460309986203
20
-153.00705710101792
10
70.466458847191518
20
-153.00705710101698
42
0.41421399081531474
10
71.466458847190395
20
-152.00705563822399
10
71.466434067463197
20
-135.06705391207299
42
0.41421313393070858
10
70.466434067464306
20
-134.06705537486701
10
64.466432604671695
20
-134.06705537486704
42
0.41421356237309503
10
63.466432604671709
20
-135.06705537486704
10
63.466432604671709
20
-137.42205783773099
10
46.590459235075301
20
-137.42205783773099
10
46.590459235075286
20
-135.06705537486704
42
0.41421356237309503
10
45.590459235075301
20
-134.06705537486701
10
40.590461976889706
20
-134.06705537486698
42
0.4142147495031378
10
39.590459950331898
20
-135.06705740142502
10
39.590459950331947
20
-152.00705507446
42
0.41421474950302334
10
40.590461976889003
20
-153.00705710101704
10
45.590460933807606
20
-153.00705710101764
42
0.41421365839013957
10
46.590459235075301
20
-152.00705507446
10
46.590459235075301
20
-151.42205783773102
10
63.466460163054407
20
-151.42204934067263
42
-9.9876693360234533e-07
0
LWPOLYLINE
5
118
100
AcDbEntity
8
0
100
AcDbPolyline
90
8
70
1
43
0.0
10
16.4829639197864
20
-118.458554069052
42
0.41421356237313495
10
15.712728009870551
20
-117.27249477750028
10
3.974956801064828
20
-114.77755448768725
42
0.41421356237331575
10
2.7888975095132902
20
-115.54779039760402
10
0.29395721970023225
20
-127.285561606409
42
0.41421356237321566
10
1.064193129616311
20
-128.471620897961
10
12.801964338421762
20
-130.96656118777372
42
0.41421356237307605
10
13.988023629973501
20
-130.19632527785799
0
LWPOLYLINE
5
119
100
AcDbEntity
8
0
100
AcDbPolyline
90
8
70
1
43
0.0
10
79.788460569743307
20
-158.61205783773099
10
91.788460569743293
20
-158.6120578377309
42
-0.41421356237309503
10
92.788460569743378
20
-159.61205783773099
10
92.788460569743236
20
-171.61205783773099
42
-0.41421356237309503
10
91.788460569743293
20
-172.61205783773093
10
79.788460569743307
20
-172.61205783773102
42
-0.41421356237306384
10
78.788460569743393
20
-171.61205783773099
10
78.788460569743407
20
-159.61205783773099
42
-0.41421356237306384
0
LWPOLYLINE
5
120
100
AcDbEntity
8
0
100
AcDbPolyline
90
31
70
1
43
0.0
10
-219.75453988575597
20
-193.21705668965603
42
0.41421369565825189
10
-220.75454034082
20
-192.21705668965609
10
-226.22382663164402
20
-192.21705917853308
42
0.41421347709694506
10
-227.22382617657999
20
-193.21705934244602
10
-227.22382595356299
20
-194.57763705920908
42
0.41421356237309503
10
-228.22382595356302
20
-195.57763705920902
10
-228.22382595356311
20
-207.577637059209
42
0.41421356237309503
10
-227.22382595356299
20
-208.57763705920902
10
-226.75453917050004
20
-208.57763705920902
10
-226.7545391704995
20
-209.15705435920401
42
0.41421474950318987
10
-225.754537143942
20
-210.15705638576202
10
-220.754538187023
20
-210.15705638576165
42
0.41421365839022023
10
-219.75453988575504
20
-209.15705435920401
10
-219.754539885756
20
-208.57205783773099
10
-202.87853897475799
20
-208.57205783773099
10
-202.87853897475796
20
-209.15705435920401
42
0.41421420394500774
10
-201.87853881084499
20
-210.15705638576202
10
-196.87853799128104
20
-210.15705638576094
42
0.41421420394471636
10
-195.87853782736801
20
-209.15705435920401
10
-195.878537827369
20
-208.57205783773099
10
-195.85699379941002
20
-208.57205783773105
42
0.41421356237309503
10
-194.85699379940999
20
-207.57205783773102
10
-194.85699379940993
20
-195.57035248819304
42
0.39720747045165788
10
-195.79861751263303
20
-194.57205783773102
10
-195.87853943026204
20
-194.57205783773102
10
-195.87853850800224
20
-193.21705721779099
42
0.4142137180815823
10
-196.87853835899102
20
-192.21705653715802
10
-201.87854134263102
20
-192.21705579210121
42
0.41421365402640975
10
-202.87854149164204
20
-193.21705595601401
10
-202.87854126920399
20
-194.574107442144
10
-219.754539885756
20
-194.576554150551
0
ENDSEC
0
SECTION
2
OBJECTS
0
DICTIONARY
5
C
100
AcDbDictionary
3
ACAD_GROUP
350
D
3
ACAD_MLINESTYLE
350
17
0
DICTIONARY
5
D
100
AcDbDictionary
0
DICTIONARY
5
1A
330
C
100
AcDbDictionary
0
DICTIONARY
5
17
100
AcDbDictionary
0
ENDSEC
0
EOF
