0
SECTION
2
HEADER
9
$INSUNITS
70
4
9
$ACADVER
1
AC1014
9
$HANDSEED
5
FFFF
0
ENDSEC
0
SECTION
2
TABLES
0
TABLE
2
VPORT
5
8
100
AcDbSymbolTable
0
ENDTAB
0
TABLE
2
LTYPE
5
5
100
AcDbSymbolTable
0
LTYPE
5
14
100
AcDbSymbolTableRecord
100
AcDbLinetypeTableRecord
2
BYBLOCK
70
0
0
LTYPE
5
15
100
AcDbSymbolTableRecord
100
AcDbLinetypeTableRecord
2
BYLAYER
70
0
0
ENDTAB
0
TABLE
2
LAYER
5
2
100
AcDbSymbolTable
70
2
0
LAYER
5
50
100
AcDbSymbolTableRecord
100
AcDbLayerTableRecord
2
0
70
0
6
CONTINUOUS
0
ENDTAB
0
TABLE
2
STYLE
5
3
100
AcDbSymbolTable
70
1
0
STYLE
5
11
100
AcDbSymbolTableRecord
100
AcDbTextStyleTableRecord
2
STANDARD
70
0
0
ENDTAB
0
TABLE
2
VIEW
5
6
100
AcDbSymbolTable
70
0
0
ENDTAB
0
TABLE
2
UCS
5
7
100
AcDbSymbolTable
70
0
0
ENDTAB
0
TABLE
2
APPID
5
9
100
AcDbSymbolTable
70
2
0
APPID
5
12
100
AcDbSymbolTableRecord
100
AcDbRegAppTableRecord
2
ACAD
70
0
0
ENDTAB
0
TABLE
2
DIMSTYLE
5
A
100
AcDbSymbolTable
70
1
0
ENDTAB
0
TABLE
2
BLOCK_RECORD
5
1
100
AcDbSymbolTable
70
1
0
BLOCK_RECORD
5
1F
100
AcDbSymbolTableRecord
100
AcDbBlockTableRecord
2
*MODEL_SPACE
0
BLOCK_RECORD
5
1B
100
AcDbSymbolTableRecord
100
AcDbBlockTableRecord
2
*PAPER_SPACE
0
ENDTAB
0
ENDSEC
0
SECTION
2
BLOCKS
0
BLOCK
5
20
100
AcDbEntity
100
AcDbBlockBegin
2
*MODEL_SPACE
0
ENDBLK
5
21
100
AcDbEntity
100
AcDbBlockEnd
0
BLOCK
5
1C
100
AcDbEntity
100
AcDbBlockBegin
2
*PAPER_SPACE
0
ENDBLK
5
1D
100
AcDbEntity
100
AcDbBlockEnd
0
ENDSEC
0
SECTION
2
ENTITIES
0
ARC
5
100
100
AcDbEntity
8
0
100
AcDbCircle
10
-194.92297290374404
20
-19.782382068832014
30
0
40
1.9999999999999882
210
0
220
-0
230
1
100
AcDbArc
50
77.619201082856549
51
90.410517096311764
0
LINE
5
101
100
AcDbEntity
8
0
100
AcDbLine
10
-194.9373025310731
20
-17.782433404045683
30
0
11
-215.818095634976
21
-17.932044235954603
31
0
0
ARC
5
102
100
AcDbEntity
8
0
100
AcDbCircle
10
-215.80376600764686
20
-19.931992900741005
30
0
40
2.0000000000000755
210
0
220
0
230
1
100
AcDbArc
50
90.410517096314194
51
102.38079891714334
0
LINE
5
103
100
AcDbEntity
8
0
100
AcDbLine
10
-216.23258202891628
20
-17.978504528647967
30
0
11
-226.77196037433649
21
-20.2920347002628
31
0
0
ARC
5
104
100
AcDbEntity
8
0
100
AcDbCircle
10
-227.20077639560589
20
-18.338546328169798
30
0
40
1.999999999999992
210
0
220
0
230
1
100
AcDbArc
50
192.38079891714304
51
282.38079891714278
0
LINE
5
105
100
AcDbEntity
8
0
100
AcDbLine
10
-229.15426476769892
20
-18.767362349439214
30
0
11
-229.58308078896999
21
-16.813873977340013
31
0
0
ARC
5
106
100
AcDbEntity
8
0
100
AcDbCircle
10
-231.53656916110003
20
-17.242689998610015
30
0
40
2.0000000000362759
210
0
220
-0
230
1
100
AcDbArc
50
12.380798916932161
51
102.38079891521863
0
LINE
5
107
100
AcDbEntity
8
0
100
AcDbLine
10
-231.96538518230383
20
-15.289201626502589
30
0
11
-286.6630596009
21
-27.296050222020014
31
0
0
ARC
5
108
100
AcDbEntity
8
0
100
AcDbCircle
10
-286.23424357969998
20
-29.249538594120015
30
0
40
1.9999999999919302
210
0
220
0
230
1
100
AcDbArc
50
102.38079891515848
51
192.38079891795584
0
LINE
5
109
100
AcDbEntity
8
0
100
AcDbLine
10
-288.18773195178693
20
-29.678354615417142
30
0
11
-287.75891593052501
21
-31.631842987539009
31
0
0
ARC
5
110
100
AcDbEntity
8
0
100
AcDbCircle
10
-289.71240430261798
20
-32.060659008809012
30
0
40
2.0000000000000098
210
0
220
0
230
1
100
AcDbArc
50
-77.619201082863242
51
12.380798917159805
0
LINE
5
111
100
AcDbEntity
8
0
100
AcDbLine
10
-289.28358828134878
20
-34.014147380902088
30
0
11
-299.81325543654003
21
-36.325545820372014
31
0
0
ARC
5
112
100
AcDbEntity
8
0
100
AcDbCircle
10
-300.242071457809
20
-34.372057448279008
30
0
40
1.9999999999999911
210
0
220
0
230
1
100
AcDbArc
50
269.84734742057867
51
282.38079891713079
0
LINE
5
113
100
AcDbEntity
8
0
100
AcDbLine
10
-300.24740003175003
20
-36.372050349841345
30
0
11
-308.03310290174102
21
-36.351306929507018
31
0
0
ARC
5
114
100
AcDbEntity
8
0
100
AcDbCircle
10
-308.02777432779999
20
-34.351314027945023
30
0
40
2.0000000000000284
210
0
220
0
230
1
100
AcDbArc
50
180
51
269.84734742057861
0
LINE
5
115
100
AcDbEntity
8
0
100
AcDbLine
10
-310.02777432779999
20
-34.351314027945023
30
0
11
-310.02777432779999
21
-32.345992533620006
31
0
0
ARC
5
116
100
AcDbEntity
8
0
100
AcDbCircle
10
-312.02777432780005
20
-32.345992533620006
30
0
40
2.0000000000000284
210
0
220
0
230
1
100
AcDbArc
50
0
51
90
0
LINE
5
117
100
AcDbEntity
8
0
100
AcDbLine
10
-312.02777432780005
20
-30.345992533620016
30
0
11
-368.02777432779999
21
-30.345992533620016
31
0
0
ARC
5
118
100
AcDbEntity
8
0
100
AcDbCircle
10
-368.02777432779999
20
-32.345992533620006
30
0
40
1.9999999999999929
210
0
220
-0
230
1
100
AcDbArc
50
90
51
180
0
LINE
5
119
100
AcDbEntity
8
0
100
AcDbLine
10
-370.02777432779999
20
-32.345992533620006
30
0
11
-370.02777432779999
21
-34.34599253362002
31
0
0
ARC
5
120
100
AcDbEntity
8
0
100
AcDbCircle
10
-372.02777432780005
20
-34.34599253362002
30
0
40
1.9999999999999929
210
0
220
0
230
1
100
AcDbArc
50
-90
51
0
0
LINE
5
121
100
AcDbEntity
8
0
100
AcDbLine
10
-372.02777432780005
20
-36.345992533620013
30
0
11
-374.02812422399995
21
-36.345992533620013
31
0
0
ARC
5
122
100
AcDbEntity
8
0
100
AcDbCircle
10
-374.02812422399995
20
-42.345992533620006
30
0
40
5.9999999999999964
210
0
220
-0
230
1
100
AcDbArc
50
90
51
178.4482819944682
0
LINE
5
123
100
AcDbEntity
8
0
100
AcDbLine
10
-380.02586900682093
20
-42.183514995402206
30
0
11
-380.02777432783876
21
-131.25009927065562
31
0
0
LINE
5
124
100
AcDbEntity
8
0
100
AcDbLine
10
-380.02777432783876
20
-131.25009927065562
30
0
11
-380.02777432779999
21
-134.25097254342003
31
0
0
ARC
5
125
100
AcDbEntity
8
0
100
AcDbCircle
10
-374.02777432779999
20
-134.25097254342003
30
0
40
6.0000000000000142
210
0
220
0
230
1
100
AcDbArc
50
180
51
269.70073155858563
0
LINE
5
126
100
AcDbEntity
8
0
100
AcDbLine
10
-374.05911350320014
20
-140.25089069753557
30
0
11
-358.07076205879702
21
-140.33440212843502
31
0
0
ARC
5
127
100
AcDbEntity
8
0
100
AcDbCircle
10
-358.0812084506
20
-142.33437484647399
30
0
40
2.0000000000000284
210
0
220
0
230
1
100
AcDbArc
50
0
51
89.700731558501573
0
LINE
5
128
100
AcDbEntity
8
0
100
AcDbLine
10
-356.0812084506
20
-142.33437484647399
30
0
11
-356.0812084506
21
-147.25885799152002
31
0
0
ARC
5
129
100
AcDbEntity
8
0
100
AcDbCircle
10
-354.08120845060006
20
-147.25885799152002
30
0
40
1.9999999999999574
210
0
220
0
230
1
100
AcDbArc
50
180
51
270
0
LINE
5
130
100
AcDbEntity
8
0
100
AcDbLine
10
-354.08120845060006
20
-149.25885799152002
30
0
11
-298.0812084506
21
-149.25885799152002
31
0
0
ARC
5
131
100
AcDbEntity
8
0
100
AcDbCircle
10
-298.0812084506
20
-147.25885799152002
30
0
40
1.9999999999999929
210
0
220
0
230
1
100
AcDbArc
50
-90
51
0
0
LINE
5
132
100
AcDbEntity
8
0
100
AcDbLine
10
-296.0812084506
20
-147.25885799152002
30
0
11
-296.0812084506
21
-145.25885799151001
31
0
0
ARC
5
133
100
AcDbEntity
8
0
100
AcDbCircle
10
-294.08120845060006
20
-145.25885799151001
30
0
40
1.9999999999999929
210
0
220
0
230
1
100
AcDbArc
50
90.000000000284984
51
180
0
LINE
5
134
100
AcDbEntity
8
0
100
AcDbLine
10
-294.08120845061001
20
-143.25885799151001
30
0
11
-275.58120820739998
21
-143.25885799142699
31
0
0
ARC
5
135
100
AcDbEntity
8
0
100
AcDbCircle
10
-275.58120820738998
20
-145.25885799141503
30
0
40
1.9999999999999929
210
0
220
-0
230
1
100
AcDbArc
50
0
51
90.000000000286605
0
LINE
5
136
100
AcDbEntity
8
0
100
AcDbLine
10
-273.58120820738998
20
-145.25885799140499
30
0
11
-273.58120820729999
21
-147.23604730062004
31
0
0
ARC
5
137
100
AcDbEntity
8
0
100
AcDbCircle
10
-271.58120820729999
20
-147.23604730062004
30
0
40
2.0000000000000284
210
0
220
0
230
1
100
AcDbArc
50
180
51
270
0
LINE
5
138
100
AcDbEntity
8
0
100
AcDbLine
10
-271.58120820729999
20
-149.23604730062004
30
0
11
-215.58120820733996
21
-149.23604730062004
31
0
0
ARC
5
139
100
AcDbEntity
8
0
100
AcDbCircle
10
-215.58120820733996
20
-147.23604730062004
30
0
40
1.9999999999999929
210
0
220
0
230
1
100
AcDbArc
50
-90
51
0
0
LINE
5
140
100
AcDbEntity
8
0
100
AcDbLine
10
-213.58120820734001
20
-147.23604730062004
30
0
11
-213.58120820734001
21
-145.23604730062004
31
0
0
ARC
5
141
100
AcDbEntity
8
0
100
AcDbCircle
10
-211.58120820733998
20
-145.23604730062004
30
0
40
1.9999999999999929
210
0
220
-0
230
1
100
AcDbArc
50
90
51
180
0
LINE
5
142
100
AcDbEntity
8
0
100
AcDbLine
10
-211.58120820733998
20
-143.23604730062004
30
0
11
-193.58120826396998
21
-143.23604730062002
31
0
0
ARC
5
143
100
AcDbEntity
8
0
100
AcDbCircle
10
-193.58120826396998
20
-145.23604730062004
30
0
40
1.9999999999999929
210
0
220
0
230
1
100
AcDbArc
50
0
51
90
0
LINE
5
144
100
AcDbEntity
8
0
100
AcDbLine
10
-191.58120826396998
20
-145.23604730062004
30
0
11
-191.58120826396998
21
-147.21504215422001
31
0
0
ARC
5
145
100
AcDbEntity
8
0
100
AcDbCircle
10
-189.58120826396998
20
-147.21504215422001
30
0
40
1.9999999999999929
210
0
220
0
230
1
100
AcDbArc
50
180
51
270
0
LINE
5
146
100
AcDbEntity
8
0
100
AcDbLine
10
-189.58120826396998
20
-149.21504215422001
30
0
11
-133.581208263972
21
-149.21504215422004
31
0
0
ARC
5
147
100
AcDbEntity
8
0
100
AcDbCircle
10
-133.581208263972
20
-147.21504215422001
30
0
40
2.0000000000000284
210
0
220
0
230
1
100
AcDbArc
50
-90
51
0
0
LINE
5
148
100
AcDbEntity
8
0
100
AcDbLine
10
-131.581208263972
20
-147.21504215422001
30
0
11
-131.581208263978
21
-145.21193876930704
31
0
0
ARC
5
149
100
AcDbEntity
8
0
100
AcDbCircle
10
-129.58120826397803
20
-145.21193876930101
30
0
40
2.0000000000000009
210
0
220
0
230
1
100
AcDbArc
50
90.088974441655623
51
180
0
LINE
5
150
100
AcDbEntity
8
0
100
AcDbLine
10
-129.58431405664379
20
-143.21194118078949
30
0
11
-111.08431405663579
21
-143.18321256399202
31
0
0
ARC
5
151
100
AcDbEntity
8
0
100
AcDbCircle
10
-111.08120826396998
20
-145.18321015250302
30
0
40
1.9999999999999929
210
0
220
-0
230
1
100
AcDbArc
50
0
51
90.088974441656873
0
LINE
5
152
100
AcDbEntity
8
0
100
AcDbLine
10
-109.08120826396998
20
-145.18321015249302
30
0
11
-109.08120826395999
21
-147.21832421632001
31
0
0
ARC
5
153
100
AcDbEntity
8
0
100
AcDbCircle
10
-107.08120826395999
20
-147.21832421632001
30
0
40
1.9999999999999929
210
0
220
0
230
1
100
AcDbArc
50
180
51
270
0
LINE
5
154
100
AcDbEntity
8
0
100
AcDbLine
10
-107.08120826395999
20
-149.21832421632001
30
0
11
-51.081207868339987
21
-149.21832421632004
31
0
0
ARC
5
155
100
AcDbEntity
8
0
100
AcDbCircle
10
-51.081207868339987
20
-147.21832421632001
30
0
40
2.0000000000000284
210
0
220
0
230
1
100
AcDbArc
50
270
51
359.99942412477066
0
LINE
5
156
100
AcDbEntity
8
0
100
AcDbLine
10
-49.081207868441012
20
-147.21834431814733
30
0
11
-49.081230292336393
21
-142.21944087833003
31
0
0
ARC
5
157
100
AcDbEntity
8
0
100
AcDbCircle
10
-47.081230292356494
20
-142.21943190672005
30
0
40
1.9999999999999929
210
0
220
-0
230
1
100
AcDbArc
50
90
51
180.00025701564857
0
LINE
5
158
100
AcDbEntity
8
0
100
AcDbLine
10
-47.081230292356494
20
-140.21943190672005
30
0
11
-31.081208207329993
21
-140.21943190672005
31
0
0
ARC
5
159
100
AcDbEntity
8
0
100
AcDbCircle
10
-31.081208207329993
20
-134.21943190672005
30
0
40
6.0000000000000142
210
0
220
0
230
1
100
AcDbArc
50
-90
51
0
0
LINE
5
160
100
AcDbEntity
8
0
100
AcDbLine
10
-25.081208207329997
20
-134.21943190672005
30
0
11
-25.081208207300207
21
-131.21943189062063
31
0
0
LINE
5
161
100
AcDbEntity
8
0
100
AcDbLine
10
-25.081208207300207
20
-131.21943189062063
30
0
11
-25.088389572802345
21
-42.228493100008997
31
0
0
ARC
5
162
100
AcDbEntity
8
0
100
AcDbCircle
10
-31.088390284509977
20
-42.219916093020018
30
0
40
6.0000068421245132
210
0
220
0
230
1
100
AcDbArc
50
-0.081904318045333158
51
90
0
LINE
5
163
100
AcDbEntity
8
0
100
AcDbLine
10
-31.088390284509977
20
-36.219916093020018
30
0
11
-38.713125810939992
21
-36.219916093020004
31
0
0
ARC
5
164
100
AcDbEntity
8
0
100
AcDbCircle
10
-38.713125810939992
20
-34.219916093020011
30
0
40
1.9999999999999929
210
0
220
0
230
1
100
AcDbArc
50
180
51
270
0
LINE
5
165
100
AcDbEntity
8
0
100
AcDbLine
10
-40.713125810939985
20
-34.219916093020011
30
0
11
-40.713125810939985
21
-32.219916093020018
31
0
0
ARC
5
166
100
AcDbEntity
8
0
100
AcDbCircle
10
-42.713125810939978
20
-32.219916093020018
30
0
40
1.9999999999999929
210
0
220
0
230
1
100
AcDbArc
50
0
51
90
0
LINE
5
167
100
AcDbEntity
8
0
100
AcDbLine
10
-42.713125810939978
20
-30.219916093020025
30
0
11
-98.713125810939999
21
-30.219916093020007
31
0
0
ARC
5
168
100
AcDbEntity
8
0
100
AcDbCircle
10
-98.713125810939999
20
-32.219916093020018
30
0
40
2.0000000000000107
210
0
220
-0
230
1
100
AcDbArc
50
90
51
180
0
LINE
5
169
100
AcDbEntity
8
0
100
AcDbLine
10
-100.71312581093999
20
-32.219916093020018
30
0
11
-100.71312581093999
21
-34.219916093020011
31
0
0
ARC
5
170
100
AcDbEntity
8
0
100
AcDbCircle
10
-102.71312581094
20
-34.219916093020011
30
0
40
1.9999999999999929
210
0
220
0
230
1
100
AcDbArc
50
-90
51
0
0
LINE
5
171
100
AcDbEntity
8
0
100
AcDbLine
10
-102.71312581094
20
-36.219916093020004
30
0
11
-110.49619535312129
21
-36.219916093020004
31
0
0
ARC
5
172
100
AcDbEntity
8
0
100
AcDbCircle
10
-110.49619535312129
20
-34.219916093020011
30
0
40
2.0000000000000093
210
0
220
0
230
1
100
AcDbArc
50
257.61920108285705
51
270
0
LINE
5
173
100
AcDbEntity
8
0
100
AcDbLine
10
-110.92501137439071
20
-36.173404465113052
30
0
11
-121.45731185745836
21
-33.861427976037021
31
0
0
ARC
5
174
100
AcDbEntity
8
0
100
AcDbCircle
10
-121.02849583618894
20
-31.907939603944016
30
0
40
2.0000000000000062
210
0
220
0
230
1
100
AcDbArc
50
167.61920108284085
51
257.61920108285648
0
LINE
5
175
100
AcDbEntity
8
0
100
AcDbLine
10
-122.98198420828186
20
-31.479123582674049
30
0
11
-122.553168187002
21
-29.525635210520011
31
0
0
ARC
5
176
100
AcDbEntity
8
0
100
AcDbCircle
10
-124.50665655909501
20
-29.096819189220007
30
0
40
2.0000000000065334
210
0
220
0
230
1
100
AcDbArc
50
-12.380798917999165
51
77.61920108229647
0
LINE
5
177
100
AcDbEntity
8
0
100
AcDbLine
10
-124.07784053780648
20
-27.143330817131162
30
0
11
-178.77551495643002
21
-15.136482221630008
31
0
0
ARC
5
178
100
AcDbEntity
8
0
100
AcDbCircle
10
-179.20433097770001
20
-17.089970593720007
30
0
40
1.9999999999971683
210
0
220
-0
230
1
100
AcDbArc
50
77.619201082822087
51
167.61920108282192
0
LINE
5
179
100
AcDbEntity
8
0
100
AcDbLine
10
-181.15781934979276
20
-16.661154572449401
30
0
11
-181.58663537106031
21
-18.614642944547004
31
0
0
ARC
5
180
100
AcDbEntity
8
0
100
AcDbCircle
10
-183.54012374315332
20
-18.185826923277606
30
0
40
1.9999999999999978
210
0
220
0
230
1
100
AcDbArc
50
257.61920108285824
51
347.61920108285727
0
LINE
5
181
100
AcDbEntity
8
0
100
AcDbLine
10
-183.96893976442269
20
-20.139315295370643
30
0
11
-194.49415688247461
21
-17.828893696738994
31
0
0
LWPOLYLINE
5
182
100
AcDbEntity
8
0
100
AcDbPolyline
90
8
70
1
43
0.0
10
-185.47283494432003
20
-121.05796096412004
10
-197.21060615312669
20
-118.56302067435165
42
-0.41421356236492152
10
-197.98084206303741
20
-117.37696138282061
10
-195.48590177322711
20
-105.63919017401849
42
-0.41421356238064094
10
-194.29984248166323
20
-104.86895426408825
10
-182.5620712728628
20
-107.36389455388621
42
-0.41421356236840162
10
-181.79183536294286
20
-108.54995384542153
10
-184.28677565279418
20
-120.28772505421274
42
-0.41421356238126944
0
LWPOLYLINE
5
183
100
AcDbEntity
8
0
100
AcDbPolyline
90
8
70
1
43
0.0
10
-357.58520333109999
20
-113.61561074432001
10
-357.58520333109982
20
-101.61561074432001
42
-0.41421356237309503
10
-356.58520333109999
20
-100.61561074432009
10
-344.58520333110005
20
-100.61561074431999
42
-0.41421356237309503
10
-343.58520333109999
20
-101.61561074432001
10
-343.58520333109999
20
-113.61561074432001
42
-0.41421356237309503
10
-344.58520333110005
20
-114.61561074432001
10
-356.58520333109999
20
-114.61561074432001
42
-0.41421356237309503
0
LWPOLYLINE
5
184
100
AcDbEntity
8
0
100
AcDbPolyline
90
8
70
1
43
0.0
10
-174.56183536295001
20
-51.659953845420006
10
-177.05677565276238
20
-63.397725054219514
42
-0.41421356238126017
10
-178.24283494432677
20
-64.167960964151803
10
-189.98060615312679
20
-61.67302067435191
42
-0.41421356236493806
10
-190.75084206303768
20
-60.486961382820503
10
-188.25590177322724
20
-48.749190174018466
42
-0.41421356238064971
10
-187.06984248166322
20
-47.978954264088131
10
-175.33207127286434
20
-50.473894553893352
42
-0.41421356236839885
0
LWPOLYLINE
5
185
100
AcDbEntity
8
0
100
AcDbPolyline
90
8
70
1
43
0.0
10
-94.905203331059994
20
-95.565610744319997
10
-106.90520333105999
20
-95.565610744319983
42
-0.41421356237309503
10
-107.90520333105999
20
-94.565610744319997
10
-107.90520333105999
20
-82.565610744319997
42
-0.41421356237309503
10
-106.90520333105999
20
-81.565610744319997
10
-94.905203331059994
20
-81.565610744319997
42
-0.41421356237309503
10
-93.905203331059994
20
-82.565610744319997
10
-93.90520333105998
20
-94.565610744319997
42
-0.41421356237309503
0
LWPOLYLINE
5
186
100
AcDbEntity
8
0
100
AcDbPolyline
90
8
70
1
43
0.0
10
-50.545203331059994
20
-83.705610744320026
10
-38.545203331059987
20
-83.705610744320026
42
-0.41421356237309503
10
-37.545203331059994
20
-84.705610744320012
10
-37.54520333106008
20
-96.705610744320012
42
-0.41421356237309503
10
-38.545203331059987
20
-97.705610744319927
10
-50.545203331059994
20
-97.705610744320012
42
-0.41421356237309503
10
-51.545203331059994
20
-96.705610744320012
10
-51.545203331059994
20
-84.705610744320012
42
-0.41421356237309503
0
LWPOLYLINE
5
187
100
AcDbEntity
8
0
100
AcDbPolyline
90
8
70
1
43
0.0
10
-307.07520333110006
20
-133.66561074432002
42
0.41421356237309503
10
-306.07520333110006
20
-132.66561074432002
10
-306.07520333110011
20
-120.66561074432002
42
0.41421356237309503
10
-307.07520333110006
20
-119.66561074432001
10
-319.0752033311
20
-119.66561074432001
42
0.41421356237309503
10
-320.0752033311
20
-120.66561074432002
10
-320.07520333109994
20
-132.66561074432002
42
0.41421356237309503
10
-319.0752033311
20
-133.66561074431999
0
LWPOLYLINE
5
188
100
AcDbEntity
8
0
100
AcDbPolyline
90
8
70
1
43
0.0
10
-63.945203331059986
20
-95.565610744319997
42
0.41421356237309503
10
-62.945203331059993
20
-94.565610744319997
10
-62.945203331059993
20
-82.565610744319997
42
0.41421356237309503
10
-63.945203331059986
20
-81.565610744319997
10
-81.945203331059986
20
-81.565610744319997
42
0.41421356237309503
10
-82.94520333106
20
-82.565610744319997
10
-82.94520333106
20
-94.565610744319997
42
0.41421356237309503
10
-81.945203331059986
20
-95.565610744319997
0
LWPOLYLINE
5
189
100
AcDbEntity
8
0
100
AcDbPolyline
90
8
70
1
43
0.0
10
-275.90947077120001
20
-100.61604768411999
10
-264.17169956240764
20
-98.121107394284039
42
-0.414213562379182
10
-262.98564027085973
20
-98.89134330423272
10
-260.49069998096405
20
-110.62911451301235
42
-0.41421356237917989
10
-261.26093589091272
20
-111.81517380456032
10
-272.99870709971702
20
-114.31011409433994
42
-0.41421356236700813
10
-274.18476639131563
20
-113.53987818452332
10
-276.67970668107967
20
-101.80210697571569
42
-0.41421356240174689
0
LWPOLYLINE
5
190
100
AcDbEntity
8
0
100
AcDbPolyline
90
8
70
1
43
0.0
10
-264.17105459729999
20
-91.929160474420001
10
-266.66599488713592
20
-80.191389265627663
42
-0.41421356237918716
10
-265.89575897718731
20
-79.005329974079757
10
-254.15798776840768
20
-76.510389684184034
42
-0.41421356237918716
10
-252.97192847685972
20
-77.280625594132729
10
-250.4769881870597
20
-89.018396802932699
42
-0.41421356237311224
10
-251.24722409701269
20
-90.204456094460284
10
-262.9849953058
20
-92.699396384319996
42
-0.41421356237309287
0
LWPOLYLINE
5
191
100
AcDbEntity
8
0
100
AcDbPolyline
90
8
70
1
43
0.0
10
-120.48520333105699
20
-134.80561074432003
10
-120.48520333106001
20
-122.80561074432001
42
-0.41421356237309503
10
-119.48520333106001
20
-121.80561074431999
10
-107.48520333105999
20
-121.80561074432001
42
-0.41421356237309503
10
-106.48520333105999
20
-122.80561074432001
10
-106.48520333105998
20
-134.80561074432003
42
-0.41421356237309503
10
-107.48520333105999
20
-135.80561074432006
10
-119.48520333106001
20
-135.80561074431702
42
-0.41421356237309503
0
LWPOLYLINE
5
192
100
AcDbEntity
8
0
100
AcDbPolyline
90
8
70
1
43
0.0
10
-296.08520333109999
20
-114.67561074432001
10
-296.08520333109999
20
-102.67561074432002
42
-0.41421356237309503
10
-295.08520333109999
20
-101.67561074432001
10
-283.08520333109999
20
-101.67561074432004
42
-0.41421356237309503
10
-282.08520333110005
20
-102.67561074432002
10
-282.08520333109999
20
-114.67561074432001
42
-0.41421356237309503
10
-283.08520333109999
20
-115.67561074432004
10
-295.08520333109999
20
-115.67561074432004
42
-0.41421356237309503
0
LWPOLYLINE
5
193
100
AcDbEntity
8
0
100
AcDbPolyline
90
8
70
1
43
0.0
10
-271.05564027079998
20
-40.641343304220001
10
-268.56069998096405
20
-52.379114513012368
42
-0.41421356237919732
10
-269.33093589091271
20
-53.565173804560274
10
-281.06870709971702
20
-56.060114094339973
42
-0.41421356236700013
10
-282.25476639131563
20
-55.289878184523346
10
-284.74970668111564
20
-43.552106975723348
42
-0.41421356240174001
10
-283.97947077120767
20
-42.366047684084052
10
-272.24169956242031
20
-39.871107394224339
42
-0.414213562379179
0
LWPOLYLINE
5
194
100
AcDbEntity
8
0
100
AcDbPolyline
90
8
70
1
43
0.0
10
-70.395203331059989
20
-114.61561074432001
42
0.41421356237309503
10
-69.395203331060003
20
-113.61561074432001
10
-69.395203331060003
20
-101.61561074432001
42
0.41421356237309503
10
-70.395203331059989
20
-100.61561074432004
10
-82.395203331060003
20
-100.61561074431999
42
0.41421356237309503
10
-83.395203331059975
20
-101.61561074432001
10
-83.395203331059975
20
-113.61561074432001
42
0.41421356237309503
10
-82.395203331060003
20
-114.61561074432001
0
LWPOLYLINE
5
195
100
AcDbEntity
8
0
100
AcDbPolyline
90
8
70
1
43
0.0
10
-169.21183536294274
20
-72.269953845421554
42
0.4142135623683969
10
-169.98207127286278
20
-71.083894553886097
10
-181.71984248166325
20
-68.58895426408813
42
0.41421356238063334
10
-182.90590177321999
20
-69.35919017402
10
-185.40084206303766
20
-81.096961382820524
42
0.41421356236492785
10
-184.63060615312
20
-82.283020674319999
10
-172.89283494432678
20
-84.777960964151902
42
0.41421356238126278
10
-171.70677565276003
20
-84.007725054220003
0
LWPOLYLINE
5
196
100
AcDbEntity
8
0
100
AcDbPolyline
90
8
70
1
43
0.0
10
-142.07970668109999
20
-129.25911451301999
10
-139.58476639129043
20
-117.5213433042193
42
-0.41421356238004203
10
-138.39870709972908
20
-116.75110739428753
10
-126.66093589091926
20
-119.24604768408835
42
-0.41421356239365886
10
-125.89069998102991
20
-120.43210697571645
10
-128.3856402708432
20
-132.16987818451634
42
-0.41421356234577478
10
-129.57169956236538
20
-132.94011409435652
10
-141.30947077116534
20
-130.44517380455102
42
-0.41421356237449697
0
LWPOLYLINE
5
197
100
AcDbEntity
8
0
100
AcDbPolyline
90
8
70
1
43
0.0
10
-266.62093589091273
20
-132.42517380456033
42
0.4142135623791911
10
-265.85069998096401
20
-131.2391145130124
10
-268.34564027085992
20
-119.50134330423275
42
0.41421356237917928
10
-269.53169956239998
20
-118.73110739432001
10
-281.26947077120769
20
-121.22604768408408
42
0.41421356240173562
10
-282.03970668110003
20
-122.41210697572001
10
-279.54476639131565
20
-134.14987818452332
42
0.4142135623670124
10
-278.35870709969998
20
-134.92011409442
0
LWPOLYLINE
5
198
100
AcDbEntity
8
0
100
AcDbPolyline
90
8
70
1
43
0.0
10
-223.26833538925001
20
-50.473894553920005
10
-211.53056418044682
20
-47.978954264088131
42
-0.4142135623806561
10
-210.34450488888274
20
-48.749190174018452
10
-207.84956459907278
20
-60.486961382818471
42
-0.41421356236554546
10
-208.61980050898325
20
-61.67302067435191
10
-220.35757171779321
20
-64.167960964151888
42
-0.41421356238065105
10
-221.54363100935726
20
-63.397725054221574
10
-224.03857129913536
20
-51.659953845414776
42
-0.41421356236552853
0
LWPOLYLINE
5
199
100
AcDbEntity
8
0
100
AcDbPolyline
90
8
70
1
43
0.0
10
-55.615203331059988
20
-115.75561074431999
42
0.41421356237309503
10
-54.615203331059988
20
-116.75561074431999
10
-42.615203331059988
20
-116.75561074431999
42
0.41421356237309503
10
-41.615203331059988
20
-115.75561074431999
10
-41.615203331059988
20
-103.75561074431999
42
0.41421356237309503
10
-42.615203331059988
20
-102.75561074432002
10
-54.615203331059988
20
-102.75561074431998
42
0.41421356237309503
10
-55.615203331059988
20
-103.75561074431999
0
LWPOLYLINE
5
200
100
AcDbEntity
8
0
100
AcDbPolyline
90
8
70
1
43
0.0
10
-68.795203331059994
20
-120.66561074432002
10
-68.79520333105998
20
-132.66561074432002
42
-0.41421356237309503
10
-69.79520333105998
20
-133.66561074432002
10
-81.79520333105998
20
-133.66561074432002
42
-0.41421356237309503
10
-82.795203331059994
20
-132.66561074432002
10
-82.795203331059994
20
-120.66561074432002
42
-0.41421356237309503
10
-81.79520333105998
20
-119.66561074432001
10
-69.79520333105998
20
-119.66561074432002
42
-0.41421356237309503
0
LWPOLYLINE
5
201
100
AcDbEntity
8
0
100
AcDbPolyline
90
8
70
1
43
0.0
10
-242.62722409689999
20
-107.85445609452
10
-254.36499530579238
20
-110.349396384356
42
-0.41421356237309614
10
-255.55105459733596
20
-109.57916047442765
10
-258.04599488713598
20
-97.841389265627669
42
-0.41421356237919438
10
-257.27575897718731
20
-96.65532997407972
10
-245.53798776840762
20
-94.160389684184068
42
-0.41421356237917989
10
-244.35192847685971
20
-94.930625594132721
10
-241.85698818697969
20
-106.66839680291568
42
-0.41421356234445122
0
LWPOLYLINE
5
202
100
AcDbEntity
8
0
100
AcDbPolyline
90
8
70
1
43
0.0
10
-284.52947077120001
20
-82.966047684120028
10
-272.79169956240764
20
-80.471107394284104
42
-0.41421356237918788
10
-271.60564027085974
20
-81.241343304232714
10
-269.110699980964
20
-92.979114513012348
42
-0.41421356237920243
10
-269.88093589091272
20
-94.165173804560311
10
-281.61870709971703
20
-96.660114094339988
42
-0.41421356236700013
10
-282.80476639131564
20
-95.889878184523312
10
-285.29970668107967
20
-84.152106975715697
42
-0.41421356240174789
0
LWPOLYLINE
5
203
100
AcDbEntity
8
0
100
AcDbPolyline
90
8
70
1
43
0.0
10
-58.775203331059984
20
-121.80561074432003
10
-46.775203331059991
20
-121.80561074432001
42
-0.41421356237309503
10
-45.775203331059998
20
-122.80561074432001
10
-45.775203331059977
20
-134.80561074432003
42
-0.41421356237309503
10
-46.775203331059991
20
-135.80561074432006
10
-58.775203331059984
20
-135.80561074432003
42
-0.41421356237309503
10
-59.775203331059984
20
-134.80561074432003
10
-59.775203331059963
20
-122.80561074432001
42
-0.41421356237309503
0
LWPOLYLINE
5
204
100
AcDbEntity
8
0
100
AcDbPolyline
90
8
70
1
43
0.0
10
-101.84520333105999
20
-132.66561074432002
10
-101.84520333106001
20
-120.66561074432002
42
-0.41421356237309503
10
-100.84520333105999
20
-119.66561074432001
10
-88.845203331059992
20
-119.66561074432001
42
-0.41421356237309503
10
-87.845203331059992
20
-120.66561074432002
10
-87.845203331059992
20
-132.66561074432002
42
-0.41421356237309503
10
-88.845203331059992
20
-133.66561074432002
10
-100.84520333105999
20
-133.66561074432002
42
-0.41421356237309503
0
LWPOLYLINE
5
205
100
AcDbEntity
8
0
100
AcDbPolyline
90
8
70
1
43
0.0
10
-279.1694707712
20
-62.356047684120014
10
-267.43169956240763
20
-59.861107394284062
42
-0.41421356237918094
10
-266.24564027085972
20
-60.631343304232708
10
-263.7506999809641
20
-72.369114513012363
42
-0.41421356237918311
10
-264.52093589091271
20
-73.555173804560283
10
-276.25870709971701
20
-76.050114094339989
42
-0.41421356236699203
10
-277.44476639131562
20
-75.279878184523341
10
-279.93970668107966
20
-63.542106975715683
42
-0.41421356240174789
0
LWPOLYLINE
5
206
100
AcDbEntity
8
0
100
AcDbPolyline
90
8
70
1
43
0.0
10
-181.01984248167
20
-88.218954264120015
10
-169.28207127286277
20
-90.713894553886064
42
-0.41421356236840318
10
-168.51183536294275
20
-91.89995384542155
10
-171.00677565276231
20
-103.63772505421952
42
-0.41421356238126278
10
-172.19283494432676
20
-104.40796096415191
10
-183.93060615312669
20
-101.9130206743516
42
-0.41421356236492585
10
-184.70084206303738
20
-100.72696138282058
10
-182.20590177319536
20
-88.989190174025254
42
-0.41421356238064333
0
LWPOLYLINE
5
207
100
AcDbEntity
8
0
100
AcDbPolyline
90
8
70
1
43
0.0
10
-168.43613068770355
20
-51.939671974183895
42
0.41421356234591694
10
-169.62218997922685
20
-52.709907884022812
10
-172.1171302690577
20
-64.447679092920509
42
0.41421356236493584
10
-171.34689435913998
20
-65.633738384420028
10
-159.60912315034679
20
-68.128678674251901
42
0.41421356238125256
10
-158.42306385878001
20
-67.358442764320031
10
-155.9281235689723
20
-55.620671555519507
42
0.41421356237101686
10
-156.69835947889001
20
-54.434612263920016
0
LWPOLYLINE
5
208
100
AcDbEntity
8
0
100
AcDbPolyline
90
8
70
1
43
0.0
10
-125.11870709972912
20
-100.10110739428768
42
0.4142135623800422
10
-126.30476639129023
20
-100.87134330421932
10
-128.79970668110332
20
-112.60911451301934
42
0.41421356237252965
10
-128.02947077118199
20
-113.79517380462002
10
-116.29169956236643
20
-116.2901140943562
42
0.41421356234590179
10
-115.10564027082999
20
-115.51987818452002
10
-112.61069998103274
20
-103.78210697571518
42
0.41421356239357682
10
-113.38093589092999
20
-102.59604768412001
0
LWPOLYLINE
5
209
100
AcDbEntity
8
0
100
AcDbPolyline
90
8
70
1
43
0.0
10
-74.165203331059985
20
-43.465610744320017
10
-62.165203331059985
20
-43.465610744320017
42
-0.41421356237309503
10
-61.165203331059992
20
-44.46561074432001
10
-61.165203331059992
20
-56.465610744320003
42
-0.41421356237309503
10
-62.165203331059985
20
-57.465610744320003
10
-74.165203331059985
20
-57.465610744320003
42
-0.41421356237309503
10
-75.165203331059985
20
-56.465610744320003
10
-75.165203331059985
20
-44.46561074432001
42
-0.41421356237309503
0
LWPOLYLINE
5
210
100
AcDbEntity
8
0
100
AcDbPolyline
90
26
70
1
43
0.0
10
-143.23966908942677
20
-55.687913018451916
42
0.41421396063202592
10
-142.053609515163
20
-54.917675778519367
10
-138.50607677045923
20
-38.227734822919516
42
0.41421474950707426
10
-139.27631424129999
20
-37.041673127720003
10
-141.47640936130301
20
-36.574028473665891
42
0.023632142364562309
10
-141.56778965548
20
-36.550042646519998
10
-146.45852663885529
20
-35.510484409297845
42
0.414213658403222
10
-147.64458469013999
20
-36.280722654720009
10
-147.7680684790281
20
-36.861668205914043
42
0.023635684841585375
10
-147.85946219665999
20
-36.837677799720012
10
-150.0595575790548
20
-36.370033089871541
42
0.023631635427907298
10
-150.15093589091001
20
-36.346047684120023
10
-161.88870709974236
20
-33.851107394284071
42
0.023635682938382974
10
-161.98195715916
20
-33.835850389520004
10
-161.86032907704026
20
-33.263635252219942
42
0.41421420394818625
10
-162.63056472593999
20
-32.077573944320008
10
-170.45648041607745
20
-30.414125554008038
42
0.41399352724524058
10
-171.64238310028
20
-31.183626829520019
10
-175.17376637842816
20
-47.736331693520398
42
0.40997282030958687
10
-174.41858048989999
20
-48.919841024620005
10
-166.60564224505137
20
-50.705490729226064
42
0.41868774590424007
10
-165.40468937911999
20
-49.938539448219998
10
-164.89179267646
20
-47.525550177820008
10
-150.6769761262
20
-50.547002708520026
10
-151.19306824816766
20
-52.9750252448205
42
0.4142135623649329
10
-150.42283233825
20
-54.161084536320004
0
LWPOLYLINE
5
211
100
AcDbEntity
8
0
100
AcDbPolyline
90
8
70
1
43
0.0
10
-247.98722409691703
20
-128.46445609443998
42
0.41421356234445766
10
-247.21698818705971
20
-127.27839680293272
10
-249.71192847685978
20
-115.54062559413268
42
0.41421356237917989
10
-250.89798776839999
20
-114.77038968422001
10
-262.63575897718732
20
-117.26532997407975
42
0.41421356237916973
10
-263.40599488709995
20
-118.45138926562001
10
-260.91105459733598
20
-130.18916047442764
42
0.41421356237310847
10
-259.72499530580001
20
-130.95939638432
0
LWPOLYLINE
5
212
100
AcDbEntity
8
0
100
AcDbPolyline
90
8
70
1
43
0.0
10
-94.205203331059991
20
-114.61561074432001
10
-106.20520333105999
20
-114.61561074431999
42
-0.41421356237309503
10
-107.20520333105998
20
-113.61561074432001
10
-107.20520333106001
20
-101.61561074432001
42
-0.41421356237309503
10
-106.20520333105999
20
-100.61561074431999
10
-94.205203331059991
20
-100.61561074432001
42
-0.41421356237309503
10
-93.205203331060005
20
-101.61561074432001
10
-93.205203331059977
20
-113.61561074432001
42
-0.41421356237309503
0
LWPOLYLINE
5
213
100
AcDbEntity
8
0
100
AcDbPolyline
90
8
70
1
43
0.0
10
-301.4452033311
20
-134.80561074432003
10
-301.4452033311
20
-122.80561074432001
42
-0.41421356237309503
10
-300.4452033311
20
-121.80561074431999
10
-288.4452033311
20
-121.80561074432003
42
-0.41421356237309503
10
-287.44520333110006
20
-122.80561074432001
10
-287.4452033311
20
-134.80561074432003
42
-0.41421356237309503
10
-288.4452033311
20
-135.80561074432006
10
-300.4452033311
20
-135.80561074432006
42
-0.41421356237309503
0
LWPOLYLINE
5
214
100
AcDbEntity
8
0
100
AcDbPolyline
90
8
70
1
43
0.0
10
-113.25520333105999
20
-75.515610744320014
42
0.41421356237309503
10
-112.25520333105999
20
-76.515610744320014
10
-100.25520333106
20
-76.515610744320014
42
0.41421356237309503
10
-99.255203331060002
20
-75.515610744320014
10
-99.255203331060002
20
-63.515610744320021
42
0.41421356237309503
10
-100.25520333106
20
-62.515610744320028
10
-112.25520333105999
20
-62.515610744320028
42
0.41421356237309503
10
-113.25520333105999
20
-63.515610744320021
0
LWPOLYLINE
5
215
100
AcDbEntity
8
0
100
AcDbPolyline
90
8
70
1
43
0.0
10
-179.34713026905746
20
-121.33767909292058
42
0.41421356236493784
10
-178.57689435914671
20
-122.52373838445173
10
-166.83912315034675
20
-125.01867867425173
42
0.41421356238127355
10
-165.65306385878
20
-124.24844276432
10
-163.15812356896274
20
-112.51067155552153
42
0.41421356237448309
10
-163.92835947888997
20
-111.32461226392003
10
-175.66613068770354
20
-108.82967197418381
42
0.41421356234591705
10
-176.85218997923999
20
-109.59990788402003
0
LWPOLYLINE
5
216
100
AcDbEntity
8
0
100
AcDbPolyline
90
8
70
1
43
0.0
10
-218.28363100935002
20
-101.65772505422001
10
-220.77857129916723
20
-89.91995384542156
42
-0.4142135623655353
10
-220.00833538925676
20
-88.733894553888149
10
-208.27056418044677
20
-86.238954264088335
42
-0.41421356238066454
10
-207.08450488888298
20
-87.009190174018514
10
-204.58956459907284
20
-98.746961382818483
42
-0.41421356236553097
10
-205.35980050898326
20
-99.933020674351809
10
-217.09757171779475
20
-102.42796096414463
42
-0.41421356238064921
0
LWPOLYLINE
5
217
100
AcDbEntity
8
0
100
AcDbPolyline
90
8
70
1
43
0.0
10
-215.70450488888275
20
-69.359190174018451
42
0.41421356238064211
10
-216.8905641804468
20
-68.58895426408813
10
-228.62833538925679
20
-71.083894553888115
42
0.41421356236553636
10
-229.39857129915998
20
-72.269953845420005
10
-226.90363100935727
20
-84.007725054221552
42
0.41421356238066126
10
-225.71757171780001
20
-84.777960964120012
10
-213.97980050898323
20
-82.283020674351917
42
0.41421356236553636
10
-213.20956459908001
20
-81.096961382820027
0
LWPOLYLINE
5
218
100
AcDbEntity
8
0
100
AcDbPolyline
90
8
70
1
43
0.0
10
-166.06713026905999
20
-104.68767909292001
10
-163.57218997922695
20
-92.949907884022792
42
-0.41421356234590684
10
-162.38613068770354
20
-92.179671974183819
10
-150.64835947890356
20
-94.674612263983775
42
-0.41421356237102092
10
-149.87812356897231
20
-95.860671555519517
10
-152.37306385878233
20
-107.59844276431951
42
-0.41421356238126378
10
-153.55912315034678
20
-108.36867867425191
10
-165.2968943591473
20
-105.87373838445421
42
-0.41421356236491846
0
LWPOLYLINE
5
219
100
AcDbEntity
8
0
100
AcDbPolyline
90
8
70
1
43
0.0
10
-332.7652033311
20
-100.61561074431999
42
0.41421356237309503
10
-333.7652033311
20
-101.61561074432001
10
-333.7652033311
20
-113.61561074432001
42
0.41421356237309503
10
-332.7652033311
20
-114.61561074432001
10
-320.76520333110005
20
-114.61561074432001
42
0.41421356237309503
10
-319.7652033311
20
-113.61561074432001
10
-319.7652033311
20
-101.61561074432001
42
0.41421356237309503
10
-320.76520333110005
20
-100.61561074432004
0
LWPOLYLINE
5
220
100
AcDbEntity
8
0
100
AcDbPolyline
90
8
70
1
43
0.0
10
-153.48341847507999
20
-68.408396802920009
10
-150.98847818526758
20
-56.670625594120523
42
-0.41421356238126411
10
-149.80241889370322
20
-55.900389684188227
10
-138.06464768492145
20
-58.395329974083381
42
-0.41421356237195311
10
-137.29441177498856
20
-59.581389265620729
10
-139.78935206480253
20
-71.319160474420556
42
-0.41421356238095364
10
-140.97541135636678
20
-72.089396384351886
10
-152.71318256514692
20
-69.594456094458522
42
-0.41421356237101475
0
LWPOLYLINE
5
221
100
AcDbEntity
8
0
100
AcDbPolyline
90
8
70
1
43
0.0
10
-291.70520333109999
20
-95.565610744319997
10
-303.70520333109999
20
-95.565610744319997
42
-0.41421356237309503
10
-304.70520333110005
20
-94.565610744319997
10
-304.70520333110005
20
-82.565610744319997
42
-0.41421356237309503
10
-303.70520333109999
20
-81.565610744319997
10
-291.70520333109999
20
-81.565610744319983
42
-0.41421356237309503
10
-290.70520333109994
20
-82.565610744319997
10
-290.70520333109994
20
-94.565610744319997
42
-0.41421356237309503
0
LWPOLYLINE
5
222
100
AcDbEntity
8
0
100
AcDbPolyline
90
8
70
1
43
0.0
10
-301.71520333110004
20
-114.61561074432001
42
0.41421356237309503
10
-300.71520333110004
20
-113.61561074432001
10
-300.71520333110027
20
-101.61561074432001
42
0.41421356237309503
10
-301.71520333110004
20
-100.61561074432004
10
-313.71520333109999
20
-100.61561074431999
42
0.41421356237309503
10
-314.71520333109999
20
-101.61561074432001
10
-314.71520333109999
20
-113.61561074432001
42
0.41421356237309503
10
-313.71520333109999
20
-114.61561074432001
0
LWPOLYLINE
5
223
100
AcDbEntity
8
0
100
AcDbPolyline
90
8
70
1
43
0.0
10
-166.7671302690577
20
-85.057679092920537
42
0.41421356236491313
10
-165.99689435914678
20
-86.243738384451873
10
-154.25912315033719
20
-88.738678674253961
42
0.41421356237839529
10
-153.07306385878002
20
-87.968442764320002
10
-150.5781235689723
20
-76.230671555519521
42
0.41421356237102092
10
-151.34835947888999
20
-75.04461226392003
10
-163.08613068770359
20
-72.549671974184008
42
0.41421356234591877
10
-164.27218997924001
20
-73.319907884020026
0
LWPOLYLINE
5
224
100
AcDbEntity
8
0
100
AcDbPolyline
90
8
70
1
43
0.0
10
-247.26204718318735
20
-75.044612263979758
42
0.41421356237917367
10
-248.03228309313596
20
-76.230671555527664
10
-245.53734280333595
20
-87.968442764327648
42
0.41421356237310414
10
-244.35128351179998
20
-88.73867867422004
10
-232.61351230299238
20
-86.243738384455952
42
0.41421356237309104
10
-231.84327639309998
20
-85.057679092920026
10
-234.33821668288437
20
-73.3199078840167
42
0.41421356233835332
10
-235.52427597440001
20
-72.549671974120002
0
LWPOLYLINE
5
225
100
AcDbEntity
8
0
100
AcDbPolyline
90
8
70
1
43
0.0
10
-227.25351230296323
20
-65.633738384451902
42
0.41421356236554691
10
-226.48327639305276
20
-64.447679092918463
10
-228.9782166828831
20
-52.709907884022797
42
0.41421356234591328
10
-230.16427597442001
20
-51.939671974120003
10
-241.90204718318734
20
-54.43461226397973
42
0.41421356237917079
10
-242.67228309309999
20
-55.620671555520005
10
-240.17734280333596
20
-67.358442764327663
42
0.41421356237309503
10
-238.99128351179999
20
-68.128678674219998
0
LWPOLYLINE
5
226
100
AcDbEntity
8
0
100
AcDbPolyline
90
8
70
1
43
0.0
10
-148.13341847507999
20
-89.018396802919995
10
-145.63847818526759
20
-77.280625594120536
42
-0.41421356238126411
10
-144.45241889370325
20
-76.510389684188226
10
-132.71464768492243
20
-79.005329974083182
42
-0.41421356237230139
10
-131.94441177498862
20
-80.191389265620941
10
-134.43935206480171
20
-91.929160474420712
42
-0.41421356238003842
10
-135.62541135636286
20
-92.699396384352397
10
-147.36318256515648
20
-90.204456094456518
42
-0.4142135623681627
0
LWPOLYLINE
5
227
100
AcDbEntity
8
0
100
AcDbPolyline
90
8
70
1
43
0.0
10
-144.52441177499
20
-116.47138926562005
10
-147.01935206480275
20
-128.20916047442157
42
-0.41421356238065482
10
-148.20541135636677
20
-128.9793963843519
10
-159.94318256515641
20
-126.48445609445604
42
-0.41421356237162876
10
-160.71341847508705
20
-125.2983968029185
10
-158.21847818526771
20
-113.56062559412051
42
-0.41421356238126167
10
-157.03241889370321
20
-112.7903896841881
10
-145.29464768492306
20
-115.28532997408149
42
-0.41421356237102785
0
LWPOLYLINE
5
228
100
AcDbEntity
8
0
100
AcDbPolyline
90
8
70
1
43
0.0
10
-225.36833538925677
20
-109.34389455388811
42
0.41421356236554174
10
-226.13857129916724
20
-110.52995384542155
10
-223.64363100935725
20
-122.26772505422154
42
0.41421356238066737
10
-222.45757171779999
20
-123.03796096412
10
-210.71980050898327
20
-120.54302067435188
42
0.41421356236554546
10
-209.94956459907999
20
-119.35696138282
10
-212.44450488888276
20
-107.61919017401848
42
0.41421356238064483
10
-213.63056418043999
20
-106.84895426412001
0
LWPOLYLINE
5
229
100
AcDbEntity
8
0
100
AcDbPolyline
90
8
70
1
43
0.0
10
-245.88722409699997
20
-69.594456094520027
10
-257.62499530579237
20
-72.089396384355979
42
-0.41421356237308704
10
-258.81105459733595
20
-71.319160474427662
10
-261.30599488713591
20
-59.581389265627649
42
-0.41421356237918311
10
-260.5357589771873
20
-58.395329974079729
10
-248.79798776840758
20
-55.90038968418439
42
-0.41421356237917673
10
-247.61192847686004
20
-56.670625594132758
10
-245.11698818699998
20
-68.408396802920009
42
-0.41421356237308488
0
LWPOLYLINE
5
230
100
AcDbEntity
8
0
100
AcDbPolyline
90
8
70
1
43
0.0
10
-143.75241889371
20
-96.140389684220011
10
-132.01464768492337
20
-98.635329974082964
42
-0.4142135623725649
10
-131.24441177498858
20
-99.821389265620837
10
-133.73935206480161
20
-111.55916047442093
42
-0.41421356237998147
10
-134.9254113563629
20
-112.32939638435252
10
-146.6631825651564
20
-109.83445609445604
42
-0.41421356237162366
10
-147.43341847508705
20
-108.64839680291854
10
-144.93847818523579
20
-96.910625594127268
42
-0.41421356238126761
0
LWPOLYLINE
5
231
100
AcDbEntity
8
0
100
AcDbPolyline
90
20
70
1
43
0.0
10
-66.867203754723647
20
-77.100608365574161
42
0.41421409132248582
10
-65.867203590819997
20
-78.100610007624994
10
-59.867205053609993
20
-78.10061000762002
42
0.41420796082794481
10
-58.867205053582694
20
-77.100629132529292
10
-58.867229833522849
20
-60.160627404969595
42
0.41421916351288951
10
-59.867229833339991
20
-59.16060828152002
10
-65.867231296129987
20
-59.16060828152002
42
0.41421356237309503
10
-66.867231296129987
20
-60.160608281520012
10
-66.867231296129987
20
-62.515610744320028
10
-83.74320466572
20
-62.515610744320028
10
-83.74320466572
20
-60.160608281520012
42
0.41421356237309503
10
-84.743204665719986
20
-59.16060828152002
10
-89.743201923909993
20
-59.160608281519075
42
0.41421474948737846
10
-90.74320395046999
20
-60.160610308020011
10
-90.743203950470942
20
-77.100607981119992
42
0.41421474948737846
10
-89.743201923909993
20
-78.100610007619991
10
-84.743202966989983
20
-78.10061000762154
42
0.41421365837177621
10
-83.74320466572
20
-77.100607981119992
10
-83.74320466572
20
-76.515610744320028
10
-66.867203737745243
20
-76.515602631786678
42
-9.9876693360234533e-07
0
LWPOLYLINE
5
232
100
AcDbEntity
8
0
100
AcDbPolyline
90
8
70
1
43
0.0
10
-298.34520333109998
20
-62.515610744320028
42
0.41421356237309503
10
-299.34520333110004
20
-63.515610744320021
10
-299.34520333110004
20
-75.515610744320014
42
0.41421356237309503
10
-298.34520333109998
20
-76.515610744320028
10
-286.34520333109998
20
-76.515610744320014
42
0.41421356237309503
10
-285.34520333109998
20
-75.515610744320014
10
-285.34520333109998
20
-63.515610744320021
42
0.41421356237309503
10
-286.34520333109998
20
-62.515610744320028
0
LWPOLYLINE
5
233
100
AcDbEntity
8
0
100
AcDbPolyline
90
30
70
1
43
0.0
10
-332.21220503940003
20
-116.31060838582019
42
0.41421366778536411
10
-333.21220555639997
20
-117.31060822872003
10
-333.21220520186364
20
-119.66766034881519
10
-350.08820378659897
20
-119.67010705671501
10
-350.08820378659999
20
-117.31060914122
42
0.41421294601307684
10
-351.08820168221553
20
-116.31060950068743
10
-356.55748771760193
20
-116.31061237632323
42
0.41421425525991579
10
-357.5574901983
20
-117.31061221828494
10
-357.5574899180981
20
-119.67118996582009
42
0.41421354371635488
10
-358.55748985440005
20
-120.67118996581999
10
-358.55748985440005
20
-132.67118996581999
42
0.41421356237309503
10
-357.55748985439999
20
-133.67118996582002
10
-357.08820307130003
20
-133.67118996582002
10
-357.088203071301
20
-134.25060726582004
42
0.41421474952839238
10
-356.08820104469999
20
-135.25060929242002
10
-351.08820208780003
20
-135.25060929242159
42
0.41421365838349816
10
-350.08820378659999
20
-134.25060726582004
10
-350.08820378659999
20
-133.66561074431999
10
-333.21220287560004
20
-133.66561074431999
10
-333.21220287560294
20
-134.25060726582004
42
0.41421420398512154
10
-332.21220271160001
20
-135.25060929242002
10
-327.21220189209998
20
-135.250609292425
42
0.4142142039558192
10
-326.21220172820006
20
-134.25060726582004
10
-326.21220172796666
20
-133.6653786448187
42
0.42053832277662823
10
-325.19065770020001
20
-132.66561074432002
10
-325.19065770020001
20
-120.66390539482001
42
0.3972074704456578
10
-326.13228141340005
20
-119.66561074432001
10
-326.2122030642646
20
-119.66561074432011
10
-326.21220172819824
20
-117.31060826112014
42
0.41421361420896885
10
-327.21220121027869
20
-116.31060765728606
0
LWPOLYLINE
5
234
100
AcDbEntity
8
0
100
AcDbPolyline
90
8
70
1
43
0.0
10
-310.75520333110001
20
-95.565610744319997
10
-322.75520333110001
20
-95.565610744319855
42
-0.41421356237309503
10
-323.75520333109989
20
-94.565610744319997
10
-323.75520333110001
20
-82.565610744319997
42
-0.41421356237309503
10
-322.75520333110001
20
-81.565610744319997
10
-310.75520333110001
20
-81.565610744320054
42
-0.41421356237309503
10
-309.75520333110006
20
-82.565610744319997
10
-309.75520333110001
20
-94.565610744319997
42
-0.41421356237309503
0
LWPOLYLINE
5
235
100
AcDbEntity
8
0
100
AcDbPolyline
90
8
70
1
43
0.0
10
-348.34080333110012
20
-44.417610744320015
42
0.41421356237309503
10
-349.34080333109995
20
-43.417610744320108
10
-361.34080333110001
20
-43.417610744320015
42
0.41421356237309503
10
-362.34080333110001
20
-44.417610744320015
10
-362.34080333109995
20
-56.417610744320008
42
0.41421356237309503
10
-361.34080333110001
20
-57.417610744320001
10
-349.34080333109995
20
-57.417610744320001
42
0.41421356237309503
10
-348.34080333110001
20
-56.417610744320008
0
LWPOLYLINE
5
236
100
AcDbEntity
8
0
100
AcDbPolyline
90
8
70
1
43
0.0
10
-192.20870709974002
20
-27.411107394320009
10
-178.14294460119356
20
-30.400877508283894
42
-0.41421356237161822
10
-177.37270869126286
20
-31.586936799821537
10
-179.86764898107276
20
-43.324708008621549
42
-0.41421356238064971
10
-181.05370827263675
20
-44.094943918551891
10
-195.1194707711669
20
-41.105173804558241
42
-0.41421356237448925
10
-195.88970668110727
20
-39.919114513018471
10
-193.3947663912538
20
-28.18134330422771
42
-0.41421356237839413
0
LWPOLYLINE
5
237
100
AcDbEntity
8
0
100
AcDbPolyline
90
8
70
1
43
0.0
10
-129.49970668110001
20
-92.979114513019994
10
-127.00476639129042
20
-81.241343304219299
42
-0.41421356238003587
10
-125.8187070997291
20
-80.471107394287515
10
-114.0809358909232
20
-82.966047684088124
42
-0.41421356239358054
10
-113.31069998103263
20
-84.152106975715213
10
-115.80564027084318
20
-95.889878184517201
42
-0.41421356234591339
10
-116.99169956236642
20
-96.660114094356118
10
-128.72947077116885
20
-94.165173804553433
42
-0.41421356237224738
0
LWPOLYLINE
5
238
100
AcDbEntity
8
0
100
AcDbPolyline
90
8
70
1
43
0.0
10
-118.66069998100998
20
-63.542106975720003
10
-121.15564027084305
20
-75.279878184516619
42
-0.41421356234551659
10
-122.3416995623645
20
-76.05011409435653
10
-134.07947077116862
20
-73.555173804557029
42
-0.41421356237252421
10
-134.84970668110344
20
-72.369114513019284
10
-132.35476639129041
20
-60.631343304219278
42
-0.41421356237991958
10
-131.16870709972946
20
-59.861107394287444
10
-119.43093589091839
20
-62.356047684065466
42
-0.41421356239358048
0
LWPOLYLINE
5
239
100
AcDbEntity
8
0
100
AcDbPolyline
90
8
70
1
43
0.0
10
-231.0782166828846
20
-111.57990788401673
42
0.41421356233835138
10
-232.26427597438729
20
-110.80967197417993
10
-244.00204718318733
20
-113.30461226397969
42
0.41421356237918205
10
-244.77228309309999
20
-114.49067155552001
10
-242.27734280333593
20
-126.22844276432765
42
0.41421356237310636
10
-241.09128351179999
20
-126.99867867422
10
-229.35351230296322
20
-124.50373838445188
42
0.4142135623649375
10
-228.58327639305
20
-123.31767909292
0
LWPOLYLINE
5
240
100
AcDbEntity
8
0
100
AcDbPolyline
90
8
70
1
43
0.0
10
-304.39520333110011
20
-63.515610744320021
42
0.41421356237309503
10
-305.39520333109999
20
-62.515610744320114
10
-317.39520333109999
20
-62.515610744320114
42
0.41421356237309503
10
-318.39520333109999
20
-63.515610744320021
10
-318.39520333109988
20
-75.515610744320014
42
0.41421356237309503
10
-317.39520333109999
20
-76.515610744320028
10
-305.39520333109999
20
-76.515610744320014
42
0.41421356237309503
10
-304.39520333110005
20
-75.515610744320014
0
LWPOLYLINE
5
241
100
AcDbEntity
8
0
100
AcDbPolyline
90
8
70
1
43
0.0
10
-238.64204718318732
20
-92.694612263979721
42
0.41421356237917079
10
-239.41228309313595
20
-93.880671555527641
10
-236.91734280333594
20
-105.61844276432765
42
0.41421356237309176
10
-235.7312835118
20
-106.38867867422005
10
-223.99351230296327
20
-103.89373838445188
42
0.4142135623649375
10
-223.22327639305001
20
-102.70767909292002
10
-225.71821668288308
20
-90.969907884022803
42
0.41421356234591949
10
-226.90427597441999
20
-90.199671974120008
0
LWPOLYLINE
5
242
100
AcDbEntity
8
0
100
AcDbPolyline
90
8
70
1
43
0.0
10
-113.85069998103275
20
-43.552106975715184
42
0.41421356239358437
10
-114.62093589092325
20
-42.36604768408823
10
-126.35870709972907
20
-39.871107394287506
42
0.41421356238003587
10
-127.54476639128698
20
-40.641343304220001
10
-130.03970668110341
20
-52.379114513019246
42
0.41421356237225448
10
-129.26947077118299
20
-53.565173804620017
10
-117.53169956236644
20
-56.060114094356202
42
0.41421356234590795
10
-116.34564027083
20
-55.28987818452002
0
ARC
5
243
100
AcDbEntity
8
0
100
AcDbCircle
10
-332.3244064726
20
-97.920613207220015
30
0
40
1.0000000000000142
210
0
220
0
230
1
100
AcDbArc
50
-90
51
3.1855207769313014
0
LINE
5
244
100
AcDbEntity
8
0
100
AcDbLine
10
-332.3244064726
20
-98.920613207220043
30
0
11
-338.26720373770002
21
-98.920613207220043
31
0
0
ARC
5
245
100
AcDbEntity
8
0
100
AcDbCircle
10
-338.26720373770002
20
-97.920613207220015
30
0
40
1.0000000000000142
210
0
220
0
230
1
100
AcDbArc
50
180
51
270
0
LINE
5
246
100
AcDbEntity
8
0
100
AcDbLine
10
-339.26720373770002
20
-97.920613207220015
30
0
11
-339.26720373770002
21
-95.565610744319997
31
0
0
LINE
5
247
100
AcDbEntity
8
0
100
AcDbLine
10
-339.26720373770002
20
-95.565610744319997
30
0
11
-356.14320461219995
21
-95.565610744319997
31
0
0
LINE
5
248
100
AcDbEntity
8
0
100
AcDbLine
10
-356.14320461219995
20
-95.565610744319997
30
0
11
-356.14320461219995
21
-97.920613207220015
31
0
0
ARC
5
249
100
AcDbEntity
8
0
100
AcDbCircle
10
-357.14320461219995
20
-97.920613207220015
30
0
40
1.0000000000000142
210
0
220
0
230
1
100
AcDbArc
50
-90
51
0
0
LINE
5
250
100
AcDbEntity
8
0
100
AcDbLine
10
-357.14320461219995
20
-98.920613207220043
30
0
11
-362.14320564920001
21
-98.920613207220043
31
0
0
ARC
5
251
100
AcDbEntity
8
0
100
AcDbCircle
10
-362.1432058131
20
-97.920613207220015
30
0
40
1.0000000000019968
210
0
220
0
230
1
100
AcDbArc
50
179.99988388678412
51
270.00000939077728
0
LINE
5
252
100
AcDbEntity
8
0
100
AcDbLine
10
-363.14320581309994
20
-97.920611180620014
30
0
11
-363.1432058131
21
-80.980613507620021
31
0
0
ARC
5
253
100
AcDbEntity
8
0
100
AcDbCircle
10
-362.1432058131
20
-80.980611481019992
30
0
40
1.0000000000050016
210
0
220
-0
230
1
100
AcDbArc
50
89.999990609222692
51
180.00011611321588
0
LINE
5
254
100
AcDbEntity
8
0
100
AcDbLine
10
-362.14320564920001
20
-79.980611481015004
30
0
11
-357.14320482959999
21
-79.980611481019992
31
0
0
ARC
5
255
100
AcDbEntity
8
0
100
AcDbCircle
10
-357.14320466570001
20
-80.980611481019992
30
0
40
1.0000000000050011
210
0
220
0
230
1
100
AcDbArc
50
-0.00011866532309283703
51
90.000009390777308
0
LINE
5
256
100
AcDbEntity
8
0
100
AcDbLine
10
-356.14320466569717
20
-80.980613552119991
30
0
11
-356.14320462109595
21
-81.565606626663808
31
0
0
LINE
5
257
100
AcDbEntity
8
0
100
AcDbLine
10
-356.14320462109595
20
-81.565606626663808
30
0
11
-353.70520333110017
21
-81.565610332633781
31
0
0
LINE
5
258
100
AcDbEntity
8
0
100
AcDbLine
10
-353.70520333110017
20
-81.565610332633781
30
0
11
-341.70520333098744
21
-81.565609718213366
31
0
0
LINE
5
259
100
AcDbEntity
8
0
100
AcDbLine
10
-341.70520333098744
20
-81.565609718213366
30
0
11
-339.26720374058573
21
-81.565614311561689
31
0
0
LINE
5
260
100
AcDbEntity
8
0
100
AcDbLine
10
-339.26720374058573
20
-81.565614311561689
30
0
11
-339.26720375283367
21
-80.98061349330267
31
0
0
ARC
5
261
100
AcDbEntity
8
0
100
AcDbCircle
10
-338.26720375469995
20
-80.980611481019992
30
0
40
1.0000000000030025
210
0
220
0
230
1
100
AcDbArc
50
90.00009733407137
51
180.00011529422034
0
LINE
5
262
100
AcDbEntity
8
0
100
AcDbLine
10
-338.26720545349997
20
-79.980611481018428
30
0
11
-332.27049561450002
21
-79.980611481019992
31
0
0
ARC
5
263
100
AcDbEntity
8
0
100
AcDbCircle
10
-332.27049561450002
20
-80.980611481019992
30
0
40
1.0000000000000033
210
0
220
-0
230
1
100
AcDbArc
50
0.48458756566122907
51
90
0
LINE
5
264
100
AcDbEntity
8
0
100
AcDbLine
10
-331.27046251231752
20
-80.972176375135916
30
0
11
-331.32595163364056
21
-97.865044020087623
31
0
0
LWPOLYLINE
5
265
100
AcDbEntity
8
0
100
AcDbPolyline
90
26
70
1
43
0.0
10
-338.67720375470003
20
-76.515610744320028
10
-355.55320565448363
20
-76.515610744320028
10
-355.55320466569754
20
-77.100608966908283
42
-0.41421336965282829
10
-356.55320296700006
20
-78.10061000762154
10
-361.55320192390002
20
-78.100610007620929
42
-0.41421474949909004
10
-362.55320395050092
20
-77.100607981119992
10
-362.55320395050001
20
-76.515610744320028
10
-369.78395333110001
20
-76.515610744320028
42
-0.41421356237309503
10
-370.78395333110001
20
-75.515610744320014
10
-370.78395333110001
20
-63.515610744320021
42
-0.41421356237309503
10
-369.78395333110001
20
-62.515610744320028
10
-362.55320343386364
20
-62.515610744320043
10
-362.55320395050182
20
-60.160609792375709
42
-0.41421459847024905
10
-361.55320192390002
20
-59.16060828151906
10
-356.55320585129999
20
-59.160608281519998
42
-0.41421356237309503
10
-355.55320585129999
20
-60.160608281520012
10
-355.55320585129999
20
-62.515610744320028
10
-338.67720375470003
20
-62.515610744320028
10
-338.67720375470003
20
-60.160608281520012
42
-0.41421356237309503
10
-337.67720375469997
20
-59.16060828152002
10
-331.67720374609996
20
-59.160608281520069
42
-0.41421359549931341
10
-330.67720374610008
20
-60.160608394619999
10
-330.67720359949999
20
-77.100609137484909
42
-0.41421372048709432
10
-331.67720425259984
20
-78.100609024219807
10
-337.67720441028814
20
-78.100610007624837
42
-0.41421396390393528
10
-338.67720375470299
20
-77.100607981119992
0
LWPOLYLINE
5
266
100
AcDbEntity
8
0
100
AcDbPolyline
90
20
70
1
43
0.0
10
-243.04259834547304
20
-49.51092605622101
10
-242.55379965955967
20
-51.810543071732702
42
-0.41421356234446066
10
-243.32403556941702
20
-52.99660236323998
10
-249.19292118511268
20
-54.244072510560329
42
-0.41421355898348411
10
-250.3789804742342
20
-53.473836611927283
10
-253.90100506583397
20
-36.904014607527238
42
-0.41421356575661827
10
-253.1307691583076
20
-35.717955304684246
10
-247.2618835651142
20
-34.470485162153139
42
-0.41421420395080855
10
-246.07582369190817
20
-35.240723020321752
10
-245.95419587489999
20
-35.812936652719998
10
-229.44697610958002
20
-32.304218776620019
10
-229.56860389080776
20
-31.732005136619534
42
-0.41421365839036778
10
-228.79837006385992
20
-30.545944215973311
10
-222.92948437082643
20
-29.298474052283826
42
-0.41421353581598852
10
-221.7434250981355
20
-30.068709873523307
10
-218.22139919576517
20
-46.638531599418982
42
-0.41421358889546694
10
-218.99163508684325
20
-47.824590979551886
10
-224.86052060264279
20
-49.072061105653958
42
-0.41421356237840434
10
-226.04657989419769
20
-48.301825195719502
10
-226.53537858017319
20
-46.002208180121009
0
ENDSEC
0
SECTION
2
OBJECTS
0
DICTIONARY
5
C
100
AcDbDictionary
3
ACAD_GROUP
350
D
3
ACAD_MLINESTYLE
350
17
0
DICTIONARY
5
D
100
AcDbDictionary
0
DICTIONARY
5
1A
330
C
100
AcDbDictionary
0
DICTIONARY
5
17
100
AcDbDictionary
0
ENDSEC
0
EOF
